<?xml version="1.0" encoding="UTF-8" standalone="no"?>
<!DOCTYPE svg PUBLIC "-//W3C//DTD SVG 1.1//EN"
 "http://www.w3.org/Graphics/SVG/1.1/DTD/svg11.dtd">
<!-- Generated by graphviz version 2.38.0 (20140413.2041)
 -->
<!-- Title: TransitlandDatastore Pages: 1 -->
<svg width="633pt" height="405pt"
 viewBox="0.00 0.00 632.60 405.46" xmlns="http://www.w3.org/2000/svg" xmlns:xlink="http://www.w3.org/1999/xlink">
<g id="graph0" class="graph" transform="scale(1 1) rotate(0) translate(28.8 376.657)">
<title>TransitlandDatastore</title>
<polygon fill="white" stroke="none" points="-28.8,28.8 -28.8,-376.657 603.8,-376.657 603.8,28.8 -28.8,28.8"/>
<text text-anchor="middle" x="287.5" y="-333.457" font-family="Arial Bold" font-size="13.00">TransitlandDatastore domain model</text>
<!-- m_Changeset -->
<g id="node1" class="node"><title>m_Changeset</title>
<path fill="none" stroke="black" d="M12,-113.293C12,-113.293 132,-113.293 132,-113.293 138,-113.293 144,-119.293 144,-125.293 144,-125.293 144,-183.293 144,-183.293 144,-189.293 138,-195.293 132,-195.293 132,-195.293 12,-195.293 12,-195.293 6,-195.293 0,-189.293 0,-183.293 0,-183.293 0,-125.293 0,-125.293 0,-119.293 6,-113.293 12,-113.293"/>
<text text-anchor="start" x="41.8823" y="-182.493" font-family="Arial Bold" font-size="11.00">Changeset</text>
<polyline fill="none" stroke="black" points="0,-175.293 144,-175.293 "/>
<text text-anchor="start" x="7" y="-162.293" font-family="Arial" font-size="10.00">applied </text>
<text text-anchor="start" x="42.0293" y="-162.293" font-family="Arial Italic" font-size="10.00" fill="#999999">boolean</text>
<text text-anchor="start" x="7" y="-149.293" font-family="Arial" font-size="10.00">applied_at </text>
<text text-anchor="start" x="55.9307" y="-149.293" font-family="Arial Italic" font-size="10.00" fill="#999999">datetime</text>
<text text-anchor="start" x="7" y="-136.293" font-family="Arial" font-size="10.00">notes </text>
<text text-anchor="start" x="34.2412" y="-136.293" font-family="Arial Italic" font-size="10.00" fill="#999999">text</text>
<text text-anchor="start" x="7" y="-123.293" font-family="Arial" font-size="10.00">payload </text>
<text text-anchor="start" x="44.8076" y="-123.293" font-family="Arial Italic" font-size="10.00" fill="#999999">json</text>
</g>
<!-- m_Identifier -->
<g id="node2" class="node"><title>m_Identifier</title>
<path fill="none" stroke="black" d="M372,-162.793C372,-162.793 563,-162.793 563,-162.793 569,-162.793 575,-168.793 575,-174.793 575,-174.793 575,-273.793 575,-273.793 575,-279.793 569,-285.793 563,-285.793 563,-285.793 372,-285.793 372,-285.793 366,-285.793 360,-279.793 360,-273.793 360,-273.793 360,-174.793 360,-174.793 360,-168.793 366,-162.793 372,-162.793"/>
<text text-anchor="start" x="442.275" y="-272.993" font-family="Arial Bold" font-size="11.00">Identifier</text>
<polyline fill="none" stroke="black" points="360,-265.793 575,-265.793 "/>
<text text-anchor="start" x="367.365" y="-252.293" font-family="Arial" font-size="10.00">created_or_updated_in_changeset_id </text>
<text text-anchor="start" x="538.059" y="-252.293" font-family="Arial Italic" font-size="10.00" fill="#999999">integer</text>
<text text-anchor="start" x="367.5" y="-239.293" font-family="Arial" font-size="10.00">current </text>
<text text-anchor="start" x="401.401" y="-239.293" font-family="Arial Italic" font-size="10.00" fill="#999999">boolean</text>
<text text-anchor="start" x="367.5" y="-226.293" font-family="Arial" font-size="10.00">destroyed_in_changeset_id </text>
<text text-anchor="start" x="492.593" y="-226.293" font-family="Arial Italic" font-size="10.00" fill="#999999">integer</text>
<text text-anchor="start" x="367.5" y="-213.293" font-family="Arial" font-size="10.00">identified_entity_type </text>
<text text-anchor="start" x="464.233" y="-213.293" font-family="Arial Italic" font-size="10.00" fill="#999999">string ∗</text>
<text text-anchor="start" x="367.5" y="-199.293" font-family="Arial" font-size="10.00">identifier </text>
<text text-anchor="start" x="408.076" y="-199.293" font-family="Arial Italic" font-size="10.00" fill="#999999">string ∗</text>
<text text-anchor="start" x="367.5" y="-185.293" font-family="Arial" font-size="10.00">tags </text>
<text text-anchor="start" x="389.18" y="-185.293" font-family="Arial Italic" font-size="10.00" fill="#999999">hstore</text>
<text text-anchor="start" x="367.5" y="-172.293" font-family="Arial" font-size="10.00">version </text>
<text text-anchor="start" x="402.515" y="-172.293" font-family="Arial Italic" font-size="10.00" fill="#999999">integer</text>
</g>
<!-- m_Changeset&#45;&gt;m_Identifier -->
<g id="edge6" class="edge"><title>m_Changeset&#45;&gt;m_Identifier</title>
<path fill="none" stroke="black" d="M91.3364,-195.297C108.804,-228.792 138.59,-273.822 180,-294.293 233.373,-320.677 297.369,-308.651 351.325,-287.664"/>
<polygon fill="black" stroke="black" points="352.717,-290.5 359.896,-284.224 350.37,-284.654 352.717,-290.5"/>
</g>
<!-- m_Operator -->
<g id="node3" class="node"><title>m_Operator</title>
<path fill="none" stroke="black" d="M192,-169.793C192,-169.793 312,-169.793 312,-169.793 318,-169.793 324,-175.793 324,-181.793 324,-181.793 324,-266.793 324,-266.793 324,-272.793 318,-278.793 312,-278.793 312,-278.793 192,-278.793 192,-278.793 186,-278.793 180,-272.793 180,-266.793 180,-266.793 180,-181.793 180,-181.793 180,-175.793 186,-169.793 192,-169.793"/>
<text text-anchor="start" x="226.773" y="-265.993" font-family="Arial Bold" font-size="11.00">Operator</text>
<polyline fill="none" stroke="black" points="180,-258.793 324,-258.793 "/>
<text text-anchor="start" x="187" y="-245.293" font-family="Arial" font-size="10.00">current </text>
<text text-anchor="start" x="220.901" y="-245.293" font-family="Arial Italic" font-size="10.00" fill="#999999">boolean</text>
<text text-anchor="start" x="187" y="-232.293" font-family="Arial" font-size="10.00">geometry </text>
<text text-anchor="start" x="231.463" y="-232.293" font-family="Arial Italic" font-size="10.00" fill="#999999">spatial</text>
<text text-anchor="start" x="187" y="-219.293" font-family="Arial" font-size="10.00">name </text>
<text text-anchor="start" x="214.793" y="-219.293" font-family="Arial Italic" font-size="10.00" fill="#999999">string</text>
<text text-anchor="start" x="187" y="-206.293" font-family="Arial" font-size="10.00">onestop_id </text>
<text text-anchor="start" x="238.709" y="-206.293" font-family="Arial Italic" font-size="10.00" fill="#999999">string ∗</text>
<text text-anchor="start" x="187" y="-192.293" font-family="Arial" font-size="10.00">tags </text>
<text text-anchor="start" x="208.68" y="-192.293" font-family="Arial Italic" font-size="10.00" fill="#999999">hstore</text>
<text text-anchor="start" x="187" y="-179.293" font-family="Arial" font-size="10.00">version </text>
<text text-anchor="start" x="222.015" y="-179.293" font-family="Arial Italic" font-size="10.00" fill="#999999">integer</text>
</g>
<!-- m_Changeset&#45;&gt;m_Operator -->
<g id="edge4" class="edge"><title>m_Changeset&#45;&gt;m_Operator</title>
<path fill="none" stroke="black" d="M144.118,-182.26C153.07,-185.781 162.275,-189.401 171.349,-192.969"/>
<polygon fill="black" stroke="black" points="170.467,-196.007 179.995,-196.369 172.773,-190.144 170.467,-196.007"/>
</g>
<!-- m_OperatorServingStop -->
<g id="node4" class="node"><title>m_OperatorServingStop</title>
<path fill="none" stroke="black" d="M407.5,-50.7926C407.5,-50.7926 527.5,-50.7926 527.5,-50.7926 533.5,-50.7926 539.5,-56.7926 539.5,-62.7926 539.5,-62.7926 539.5,-107.793 539.5,-107.793 539.5,-113.793 533.5,-119.793 527.5,-119.793 527.5,-119.793 407.5,-119.793 407.5,-119.793 401.5,-119.793 395.5,-113.793 395.5,-107.793 395.5,-107.793 395.5,-62.7926 395.5,-62.7926 395.5,-56.7926 401.5,-50.7926 407.5,-50.7926"/>
<text text-anchor="start" x="409.88" y="-106.993" font-family="Arial Bold" font-size="11.00">OperatorServingStop</text>
<polyline fill="none" stroke="black" points="395.5,-99.7926 539.5,-99.7926 "/>
<text text-anchor="start" x="402.5" y="-86.2926" font-family="Arial" font-size="10.00">current </text>
<text text-anchor="start" x="436.401" y="-86.2926" font-family="Arial Italic" font-size="10.00" fill="#999999">boolean</text>
<text text-anchor="start" x="402.5" y="-73.2926" font-family="Arial" font-size="10.00">tags </text>
<text text-anchor="start" x="424.18" y="-73.2926" font-family="Arial Italic" font-size="10.00" fill="#999999">hstore</text>
<text text-anchor="start" x="402.5" y="-60.2926" font-family="Arial" font-size="10.00">version </text>
<text text-anchor="start" x="437.515" y="-60.2926" font-family="Arial Italic" font-size="10.00" fill="#999999">integer</text>
</g>
<!-- m_Changeset&#45;&gt;m_OperatorServingStop -->
<g id="edge5" class="edge"><title>m_Changeset&#45;&gt;m_OperatorServingStop</title>
<path fill="none" stroke="black" d="M91.5871,-113.241C109.126,-80.015 138.878,-35.5322 180,-15.2926 252.286,20.2855 343.948,-14.3174 403.858,-46.2695"/>
<polygon fill="black" stroke="black" points="402.685,-49.2172 412.096,-50.7529 405.697,-43.6837 402.685,-49.2172"/>
</g>
<!-- m_Stop -->
<g id="node5" class="node"><title>m_Stop</title>
<path fill="none" stroke="black" d="M192,-30.7926C192,-30.7926 312,-30.7926 312,-30.7926 318,-30.7926 324,-36.7926 324,-42.7926 324,-42.7926 324,-127.793 324,-127.793 324,-133.793 318,-139.793 312,-139.793 312,-139.793 192,-139.793 192,-139.793 186,-139.793 180,-133.793 180,-127.793 180,-127.793 180,-42.7926 180,-42.7926 180,-36.7926 186,-30.7926 192,-30.7926"/>
<text text-anchor="start" x="237.781" y="-126.993" font-family="Arial Bold" font-size="11.00">Stop</text>
<polyline fill="none" stroke="black" points="180,-119.793 324,-119.793 "/>
<text text-anchor="start" x="187" y="-106.293" font-family="Arial" font-size="10.00">current </text>
<text text-anchor="start" x="220.901" y="-106.293" font-family="Arial Italic" font-size="10.00" fill="#999999">boolean</text>
<text text-anchor="start" x="187" y="-93.2926" font-family="Arial" font-size="10.00">geometry </text>
<text text-anchor="start" x="231.463" y="-93.2926" font-family="Arial Italic" font-size="10.00" fill="#999999">spatial</text>
<text text-anchor="start" x="187" y="-80.2926" font-family="Arial" font-size="10.00">name </text>
<text text-anchor="start" x="214.793" y="-80.2926" font-family="Arial Italic" font-size="10.00" fill="#999999">string</text>
<text text-anchor="start" x="187" y="-67.2926" font-family="Arial" font-size="10.00">onestop_id </text>
<text text-anchor="start" x="238.709" y="-67.2926" font-family="Arial Italic" font-size="10.00" fill="#999999">string ∗</text>
<text text-anchor="start" x="187" y="-53.2926" font-family="Arial" font-size="10.00">tags </text>
<text text-anchor="start" x="208.68" y="-53.2926" font-family="Arial Italic" font-size="10.00" fill="#999999">hstore</text>
<text text-anchor="start" x="187" y="-40.2926" font-family="Arial" font-size="10.00">version </text>
<text text-anchor="start" x="222.015" y="-40.2926" font-family="Arial Italic" font-size="10.00" fill="#999999">integer</text>
</g>
<!-- m_Changeset&#45;&gt;m_Stop -->
<g id="edge3" class="edge"><title>m_Changeset&#45;&gt;m_Stop</title>
<path fill="none" stroke="black" d="M144.118,-126.724C153.07,-123.254 162.275,-119.686 171.349,-116.169"/>
<polygon fill="black" stroke="black" points="172.742,-119.007 179.995,-112.817 170.465,-113.133 172.742,-119.007"/>
</g>
<!-- m_Operator&#45;&gt;m_Identifier -->
<g id="edge1" class="edge"><title>m_Operator&#45;&gt;m_Identifier</title>
<path fill="none" stroke="black" d="M324.092,-224.293C332.735,-224.293 341.73,-224.293 350.813,-224.293"/>
<polygon fill="black" stroke="black" points="350.914,-227.443 359.914,-224.293 350.914,-221.143 350.914,-227.443"/>
</g>
<!-- m_Operator&#45;&gt;m_OperatorServingStop -->
<g id="edge9" class="edge"><title>m_Operator&#45;&gt;m_OperatorServingStop</title>
<path fill="none" stroke="black" d="M324.088,-172.559C335.966,-164.275 348.247,-155.924 360,-148.293 372.16,-140.397 385.311,-132.285 398.085,-124.621"/>
<polygon fill="black" stroke="black" points="399.863,-127.228 405.978,-119.912 396.635,-121.818 399.863,-127.228"/>
</g>
<!-- m_Operator&#45;&gt;m_Stop -->
<g id="edge10" class="edge"><title>m_Operator&#45;&gt;m_Stop</title>
<path fill="none" stroke="black" stroke-dasharray="1,5" d="M252,-169.544C252,-162.742 252,-155.939 252,-149.137"/>
<polygon fill="black" stroke="black" points="255.15,-148.861 252,-139.861 248.85,-148.861 255.15,-148.861"/>
</g>
<!-- m_Stop&#45;&gt;m_Identifier -->
<g id="edge2" class="edge"><title>m_Stop&#45;&gt;m_Identifier</title>
<path fill="none" stroke="black" d="M324.092,-131.578C336.869,-139.896 350.416,-148.715 363.875,-157.478"/>
<polygon fill="black" stroke="black" points="362.521,-160.356 371.783,-162.626 365.959,-155.076 362.521,-160.356"/>
</g>
<!-- m_Stop&#45;&gt;m_OperatorServingStop -->
<g id="edge13" class="edge"><title>m_Stop&#45;&gt;m_OperatorServingStop</title>
<path fill="none" stroke="black" d="M324.092,-85.2926C343.974,-85.2926 365.72,-85.2926 386.099,-85.2926"/>
<polygon fill="black" stroke="black" points="386.354,-88.4427 395.354,-85.2926 386.354,-82.1427 386.354,-88.4427"/>
</g>
</g>
</svg>
