<?xml version="1.0" encoding="UTF-8" standalone="no"?>
<!DOCTYPE svg PUBLIC "-//W3C//DTD SVG 1.1//EN"
 "http://www.w3.org/Graphics/SVG/1.1/DTD/svg11.dtd">
<!-- Generated by graphviz version 2.38.0 (20140413.2041)
 -->
<!-- Title: Onestop Pages: 1 -->
<svg width="382pt" height="180pt"
 viewBox="0.00 0.00 381.60 179.55" xmlns="http://www.w3.org/2000/svg" xmlns:xlink="http://www.w3.org/1999/xlink">
<g id="graph0" class="graph" transform="scale(1 1) rotate(0) translate(28.8 150.749)">
<title>Onestop</title>
<polygon fill="white" stroke="none" points="-28.8,28.8 -28.8,-150.749 352.8,-150.749 352.8,28.8 -28.8,28.8"/>
<text text-anchor="middle" x="162" y="-107.549" font-family="Arial Bold" font-size="13.00">Onestop domain model</text>
<!-- m_Stop -->
<g id="node1" class="node"><title>m_Stop</title>
<path fill="none" stroke="black" d="M12,-0.5C12,-0.5 132,-0.5 132,-0.5 138,-0.5 144,-6.5 144,-12.5 144,-12.5 144,-71.5 144,-71.5 144,-77.5 138,-83.5 132,-83.5 132,-83.5 12,-83.5 12,-83.5 6,-83.5 0,-77.5 0,-71.5 0,-71.5 0,-12.5 0,-12.5 0,-6.5 6,-0.5 12,-0.5"/>
<text text-anchor="start" x="57.7808" y="-70.7" font-family="Arial Bold" font-size="11.00">Stop</text>
<polyline fill="none" stroke="black" points="0,-63.5 144,-63.5 "/>
<text text-anchor="start" x="7" y="-50" font-family="Arial" font-size="10.00">geometry </text>
<text text-anchor="start" x="51.4629" y="-50" font-family="Arial Italic" font-size="10.00" fill="#999999">spatial</text>
<text text-anchor="start" x="7" y="-37" font-family="Arial" font-size="10.00">name </text>
<text text-anchor="start" x="34.793" y="-37" font-family="Arial Italic" font-size="10.00" fill="#999999">string</text>
<text text-anchor="start" x="7" y="-24" font-family="Arial" font-size="10.00">onestop_id </text>
<text text-anchor="start" x="58.709" y="-24" font-family="Arial Italic" font-size="10.00" fill="#999999">string ∗</text>
<text text-anchor="start" x="7" y="-10" font-family="Arial" font-size="10.00">tags </text>
<text text-anchor="start" x="28.6797" y="-10" font-family="Arial Italic" font-size="10.00" fill="#999999">hstore</text>
</g>
<!-- m_StopIdentifier -->
<g id="node2" class="node"><title>m_StopIdentifier</title>
<path fill="none" stroke="black" d="M192,-13.5C192,-13.5 312,-13.5 312,-13.5 318,-13.5 324,-19.5 324,-25.5 324,-25.5 324,-58.5 324,-58.5 324,-64.5 318,-70.5 312,-70.5 312,-70.5 192,-70.5 192,-70.5 186,-70.5 180,-64.5 180,-58.5 180,-58.5 180,-25.5 180,-25.5 180,-19.5 186,-13.5 192,-13.5"/>
<text text-anchor="start" x="214.556" y="-57.7" font-family="Arial Bold" font-size="11.00">StopIdentifier</text>
<polyline fill="none" stroke="black" points="180,-50.5 324,-50.5 "/>
<text text-anchor="start" x="187" y="-37" font-family="Arial" font-size="10.00">identifier </text>
<text text-anchor="start" x="227.576" y="-37" font-family="Arial Italic" font-size="10.00" fill="#999999">string ∗</text>
<text text-anchor="start" x="187" y="-23" font-family="Arial" font-size="10.00">tags </text>
<text text-anchor="start" x="208.68" y="-23" font-family="Arial Italic" font-size="10.00" fill="#999999">hstore</text>
</g>
<!-- m_Stop&#45;&gt;m_StopIdentifier -->
<g id="edge1" class="edge"><title>m_Stop&#45;&gt;m_StopIdentifier</title>
<path fill="none" stroke="black" d="M144.118,-42C152.886,-42 161.896,-42 170.787,-42"/>
<polygon fill="black" stroke="black" points="170.995,-45.1501 179.995,-42 170.995,-38.8501 170.995,-45.1501"/>
</g>
</g>
</svg>
