<?xml version="1.0" encoding="UTF-8" standalone="no"?>
<!DOCTYPE svg PUBLIC "-//W3C//DTD SVG 1.1//EN"
 "http://www.w3.org/Graphics/SVG/1.1/DTD/svg11.dtd">
<!-- Generated by graphviz version 2.38.0 (20140413.2041)
 -->
<!-- Title: TransitlandDatastore Pages: 1 -->
<svg width="562pt" height="408pt"
 viewBox="0.00 0.00 561.60 408.17" xmlns="http://www.w3.org/2000/svg" xmlns:xlink="http://www.w3.org/1999/xlink">
<g id="graph0" class="graph" transform="scale(1 1) rotate(0) translate(28.8 379.375)">
<title>TransitlandDatastore</title>
<polygon fill="white" stroke="none" points="-28.8,28.8 -28.8,-379.375 532.8,-379.375 532.8,28.8 -28.8,28.8"/>
<text text-anchor="middle" x="252" y="-336.175" font-family="Arial Bold" font-size="13.00">TransitlandDatastore domain model</text>
<!-- m_Changeset -->
<g id="node1" class="node"><title>m_Changeset</title>
<path fill="none" stroke="black" d="M12,-42.7102C12,-42.7102 132,-42.7102 132,-42.7102 138,-42.7102 144,-48.7102 144,-54.7102 144,-54.7102 144,-112.71 144,-112.71 144,-118.71 138,-124.71 132,-124.71 132,-124.71 12,-124.71 12,-124.71 6,-124.71 0,-118.71 0,-112.71 0,-112.71 0,-54.7102 0,-54.7102 0,-48.7102 6,-42.7102 12,-42.7102"/>
<text text-anchor="start" x="41.8823" y="-111.91" font-family="Arial Bold" font-size="11.00">Changeset</text>
<polyline fill="none" stroke="black" points="0,-104.71 144,-104.71 "/>
<text text-anchor="start" x="7" y="-91.7102" font-family="Arial" font-size="10.00">applied </text>
<text text-anchor="start" x="42.0293" y="-91.7102" font-family="Arial Italic" font-size="10.00" fill="#999999">boolean</text>
<text text-anchor="start" x="7" y="-78.7102" font-family="Arial" font-size="10.00">applied_at </text>
<text text-anchor="start" x="55.9307" y="-78.7102" font-family="Arial Italic" font-size="10.00" fill="#999999">datetime</text>
<text text-anchor="start" x="7" y="-65.7102" font-family="Arial" font-size="10.00">notes </text>
<text text-anchor="start" x="34.2412" y="-65.7102" font-family="Arial Italic" font-size="10.00" fill="#999999">text</text>
<text text-anchor="start" x="7" y="-52.7102" font-family="Arial" font-size="10.00">payload </text>
<text text-anchor="start" x="44.8076" y="-52.7102" font-family="Arial Italic" font-size="10.00" fill="#999999">json</text>
</g>
<!-- m_Identifier -->
<g id="node2" class="node"><title>m_Identifier</title>
<path fill="none" stroke="black" d="M372,-174.21C372,-174.21 492,-174.21 492,-174.21 498,-174.21 504,-180.21 504,-186.21 504,-186.21 504,-259.21 504,-259.21 504,-265.21 498,-271.21 492,-271.21 492,-271.21 372,-271.21 372,-271.21 366,-271.21 360,-265.21 360,-259.21 360,-259.21 360,-186.21 360,-186.21 360,-180.21 366,-174.21 372,-174.21"/>
<text text-anchor="start" x="406.775" y="-258.41" font-family="Arial Bold" font-size="11.00">Identifier</text>
<polyline fill="none" stroke="black" points="360,-251.21 504,-251.21 "/>
<text text-anchor="start" x="367" y="-237.71" font-family="Arial" font-size="10.00">current </text>
<text text-anchor="start" x="400.901" y="-237.71" font-family="Arial Italic" font-size="10.00" fill="#999999">boolean</text>
<text text-anchor="start" x="367" y="-224.71" font-family="Arial" font-size="10.00">identified_entity_type </text>
<text text-anchor="start" x="463.733" y="-224.71" font-family="Arial Italic" font-size="10.00" fill="#999999">string ∗</text>
<text text-anchor="start" x="367" y="-210.71" font-family="Arial" font-size="10.00">identifier </text>
<text text-anchor="start" x="407.576" y="-210.71" font-family="Arial Italic" font-size="10.00" fill="#999999">string ∗</text>
<text text-anchor="start" x="367" y="-196.71" font-family="Arial" font-size="10.00">tags </text>
<text text-anchor="start" x="388.68" y="-196.71" font-family="Arial Italic" font-size="10.00" fill="#999999">hstore</text>
<text text-anchor="start" x="367" y="-183.71" font-family="Arial" font-size="10.00">version </text>
<text text-anchor="start" x="402.015" y="-183.71" font-family="Arial Italic" font-size="10.00" fill="#999999">integer</text>
</g>
<!-- m_Changeset&#45;&gt;m_Identifier -->
<g id="edge9" class="edge"><title>m_Changeset&#45;&gt;m_Identifier</title>
<path fill="none" stroke="black" d="M80.7829,-125.07C92.6053,-174.836 120.357,-256.24 180,-292.71 234.601,-326.097 262.666,-310.99 324,-292.71 337.001,-288.835 349.893,-282.821 361.986,-275.91"/>
<polygon fill="black" stroke="black" points="363.688,-278.563 369.811,-271.253 360.466,-273.149 363.688,-278.563"/>
</g>
<!-- m_Operator -->
<g id="node3" class="node"><title>m_Operator</title>
<path fill="none" stroke="black" d="M192,-168.21C192,-168.21 312,-168.21 312,-168.21 318,-168.21 324,-174.21 324,-180.21 324,-180.21 324,-265.21 324,-265.21 324,-271.21 318,-277.21 312,-277.21 312,-277.21 192,-277.21 192,-277.21 186,-277.21 180,-271.21 180,-265.21 180,-265.21 180,-180.21 180,-180.21 180,-174.21 186,-168.21 192,-168.21"/>
<text text-anchor="start" x="226.773" y="-264.41" font-family="Arial Bold" font-size="11.00">Operator</text>
<polyline fill="none" stroke="black" points="180,-257.21 324,-257.21 "/>
<text text-anchor="start" x="187" y="-243.71" font-family="Arial" font-size="10.00">current </text>
<text text-anchor="start" x="220.901" y="-243.71" font-family="Arial Italic" font-size="10.00" fill="#999999">boolean</text>
<text text-anchor="start" x="187" y="-230.71" font-family="Arial" font-size="10.00">geometry </text>
<text text-anchor="start" x="231.463" y="-230.71" font-family="Arial Italic" font-size="10.00" fill="#999999">spatial</text>
<text text-anchor="start" x="187" y="-217.71" font-family="Arial" font-size="10.00">name </text>
<text text-anchor="start" x="214.793" y="-217.71" font-family="Arial Italic" font-size="10.00" fill="#999999">string</text>
<text text-anchor="start" x="187" y="-204.71" font-family="Arial" font-size="10.00">onestop_id </text>
<text text-anchor="start" x="238.709" y="-204.71" font-family="Arial Italic" font-size="10.00" fill="#999999">string ∗</text>
<text text-anchor="start" x="187" y="-190.71" font-family="Arial" font-size="10.00">tags </text>
<text text-anchor="start" x="208.68" y="-190.71" font-family="Arial Italic" font-size="10.00" fill="#999999">hstore</text>
<text text-anchor="start" x="187" y="-177.71" font-family="Arial" font-size="10.00">version </text>
<text text-anchor="start" x="222.015" y="-177.71" font-family="Arial Italic" font-size="10.00" fill="#999999">integer</text>
</g>
<!-- m_Changeset&#45;&gt;m_Operator -->
<g id="edge5" class="edge"><title>m_Changeset&#45;&gt;m_Operator</title>
<path fill="none" stroke="black" d="M125.924,-125.038C140.943,-136.767 157.612,-149.783 173.755,-162.39"/>
<polygon fill="black" stroke="black" points="172.095,-165.09 181.128,-168.147 175.973,-160.125 172.095,-165.09"/>
</g>
<!-- m_OperatorServingStop -->
<g id="node4" class="node"><title>m_OperatorServingStop</title>
<path fill="none" stroke="black" d="M372,-49.2102C372,-49.2102 492,-49.2102 492,-49.2102 498,-49.2102 504,-55.2102 504,-61.2102 504,-61.2102 504,-106.21 504,-106.21 504,-112.21 498,-118.21 492,-118.21 492,-118.21 372,-118.21 372,-118.21 366,-118.21 360,-112.21 360,-106.21 360,-106.21 360,-61.2102 360,-61.2102 360,-55.2102 366,-49.2102 372,-49.2102"/>
<text text-anchor="start" x="374.38" y="-105.41" font-family="Arial Bold" font-size="11.00">OperatorServingStop</text>
<polyline fill="none" stroke="black" points="360,-98.2102 504,-98.2102 "/>
<text text-anchor="start" x="367" y="-84.7102" font-family="Arial" font-size="10.00">current </text>
<text text-anchor="start" x="400.901" y="-84.7102" font-family="Arial Italic" font-size="10.00" fill="#999999">boolean</text>
<text text-anchor="start" x="367" y="-71.7102" font-family="Arial" font-size="10.00">tags </text>
<text text-anchor="start" x="388.68" y="-71.7102" font-family="Arial Italic" font-size="10.00" fill="#999999">hstore</text>
<text text-anchor="start" x="367" y="-58.7102" font-family="Arial" font-size="10.00">version </text>
<text text-anchor="start" x="402.015" y="-58.7102" font-family="Arial Italic" font-size="10.00" fill="#999999">integer</text>
</g>
<!-- m_Changeset&#45;&gt;m_OperatorServingStop -->
<g id="edge7" class="edge"><title>m_Changeset&#45;&gt;m_OperatorServingStop</title>
<path fill="none" stroke="black" d="M122.75,-42.6222C139.845,-30.9264 159.79,-19.7337 180,-13.7102 241.334,4.57007 262.666,4.57007 324,-13.7102 344.754,-19.8959 365.23,-31.533 382.624,-43.5682"/>
<polygon fill="black" stroke="black" points="381.234,-46.4455 390.39,-49.1078 384.892,-41.3167 381.234,-46.4455"/>
</g>
<!-- m_Stop -->
<g id="node5" class="node"><title>m_Stop</title>
<path fill="none" stroke="black" d="M192,-29.2102C192,-29.2102 312,-29.2102 312,-29.2102 318,-29.2102 324,-35.2102 324,-41.2102 324,-41.2102 324,-126.21 324,-126.21 324,-132.21 318,-138.21 312,-138.21 312,-138.21 192,-138.21 192,-138.21 186,-138.21 180,-132.21 180,-126.21 180,-126.21 180,-41.2102 180,-41.2102 180,-35.2102 186,-29.2102 192,-29.2102"/>
<text text-anchor="start" x="237.781" y="-125.41" font-family="Arial Bold" font-size="11.00">Stop</text>
<polyline fill="none" stroke="black" points="180,-118.21 324,-118.21 "/>
<text text-anchor="start" x="187" y="-104.71" font-family="Arial" font-size="10.00">current </text>
<text text-anchor="start" x="220.901" y="-104.71" font-family="Arial Italic" font-size="10.00" fill="#999999">boolean</text>
<text text-anchor="start" x="187" y="-91.7102" font-family="Arial" font-size="10.00">geometry </text>
<text text-anchor="start" x="231.463" y="-91.7102" font-family="Arial Italic" font-size="10.00" fill="#999999">spatial</text>
<text text-anchor="start" x="187" y="-78.7102" font-family="Arial" font-size="10.00">name </text>
<text text-anchor="start" x="214.793" y="-78.7102" font-family="Arial Italic" font-size="10.00" fill="#999999">string</text>
<text text-anchor="start" x="187" y="-65.7102" font-family="Arial" font-size="10.00">onestop_id </text>
<text text-anchor="start" x="238.709" y="-65.7102" font-family="Arial Italic" font-size="10.00" fill="#999999">string ∗</text>
<text text-anchor="start" x="187" y="-51.7102" font-family="Arial" font-size="10.00">tags </text>
<text text-anchor="start" x="208.68" y="-51.7102" font-family="Arial Italic" font-size="10.00" fill="#999999">hstore</text>
<text text-anchor="start" x="187" y="-38.7102" font-family="Arial" font-size="10.00">version </text>
<text text-anchor="start" x="222.015" y="-38.7102" font-family="Arial Italic" font-size="10.00" fill="#999999">integer</text>
</g>
<!-- m_Changeset&#45;&gt;m_Stop -->
<g id="edge3" class="edge"><title>m_Changeset&#45;&gt;m_Stop</title>
<path fill="none" stroke="black" d="M144.118,-83.7102C152.886,-83.7102 161.896,-83.7102 170.787,-83.7102"/>
<polygon fill="black" stroke="black" points="170.995,-86.8603 179.995,-83.7102 170.995,-80.5603 170.995,-86.8603"/>
</g>
<!-- m_Operator&#45;&gt;m_Identifier -->
<g id="edge1" class="edge"><title>m_Operator&#45;&gt;m_Identifier</title>
<path fill="none" stroke="black" d="M324.118,-222.71C332.886,-222.71 341.896,-222.71 350.787,-222.71"/>
<polygon fill="black" stroke="black" points="350.995,-225.86 359.995,-222.71 350.995,-219.56 350.995,-225.86"/>
</g>
<!-- m_Operator&#45;&gt;m_OperatorServingStop -->
<g id="edge11" class="edge"><title>m_Operator&#45;&gt;m_OperatorServingStop</title>
<path fill="none" stroke="black" d="M322.839,-168.173C341.674,-153.465 361.71,-137.819 379.353,-124.041"/>
<polygon fill="black" stroke="black" points="381.603,-126.281 386.758,-118.259 377.726,-121.315 381.603,-126.281"/>
</g>
<!-- m_Operator&#45;&gt;m_Stop -->
<g id="edge12" class="edge"><title>m_Operator&#45;&gt;m_Stop</title>
<path fill="none" stroke="black" stroke-dasharray="1,5" d="M252,-167.962C252,-161.159 252,-154.357 252,-147.555"/>
<polygon fill="black" stroke="black" points="255.15,-147.279 252,-138.279 248.85,-147.279 255.15,-147.279"/>
</g>
<!-- m_Stop&#45;&gt;m_Identifier -->
<g id="edge2" class="edge"><title>m_Stop&#45;&gt;m_Identifier</title>
<path fill="none" stroke="black" d="M322.839,-138.248C335.541,-148.166 348.789,-158.511 361.481,-168.423"/>
<polygon fill="black" stroke="black" points="359.849,-171.145 368.881,-174.201 363.726,-166.179 359.849,-171.145"/>
</g>
<!-- m_Stop&#45;&gt;m_OperatorServingStop -->
<g id="edge13" class="edge"><title>m_Stop&#45;&gt;m_OperatorServingStop</title>
<path fill="none" stroke="black" d="M324.118,-83.7102C332.886,-83.7102 341.896,-83.7102 350.787,-83.7102"/>
<polygon fill="black" stroke="black" points="350.995,-86.8603 359.995,-83.7102 350.995,-80.5603 350.995,-86.8603"/>
</g>
</g>
</svg>
