<?xml version="1.0" encoding="UTF-8" standalone="no"?>
<!DOCTYPE svg PUBLIC "-//W3C//DTD SVG 1.1//EN"
 "http://www.w3.org/Graphics/SVG/1.1/DTD/svg11.dtd">
<!-- Generated by graphviz version 2.38.0 (20140413.2041)
 -->
<!-- Title: Onestop Pages: 1 -->
<svg width="382pt" height="293pt"
 viewBox="0.00 0.00 381.60 292.55" xmlns="http://www.w3.org/2000/svg" xmlns:xlink="http://www.w3.org/1999/xlink">
<g id="graph0" class="graph" transform="scale(1 1) rotate(0) translate(28.8 263.749)">
<title>Onestop</title>
<polygon fill="white" stroke="none" points="-28.8,28.8 -28.8,-263.749 352.8,-263.749 352.8,28.8 -28.8,28.8"/>
<text text-anchor="middle" x="162" y="-220.549" font-family="Arial Bold" font-size="13.00">Onestop domain model</text>
<!-- m_Identifier -->
<g id="node1" class="node"><title>m_Identifier</title>
<path fill="none" stroke="black" d="M192,-112.5C192,-112.5 312,-112.5 312,-112.5 318,-112.5 324,-118.5 324,-124.5 324,-124.5 324,-171.5 324,-171.5 324,-177.5 318,-183.5 312,-183.5 312,-183.5 192,-183.5 192,-183.5 186,-183.5 180,-177.5 180,-171.5 180,-171.5 180,-124.5 180,-124.5 180,-118.5 186,-112.5 192,-112.5"/>
<text text-anchor="start" x="226.775" y="-170.7" font-family="Arial Bold" font-size="11.00">Identifier</text>
<polyline fill="none" stroke="black" points="180,-163.5 324,-163.5 "/>
<text text-anchor="start" x="187" y="-150" font-family="Arial" font-size="10.00">identified_entity_type </text>
<text text-anchor="start" x="283.733" y="-150" font-family="Arial Italic" font-size="10.00" fill="#999999">string ∗</text>
<text text-anchor="start" x="187" y="-136" font-family="Arial" font-size="10.00">identifier </text>
<text text-anchor="start" x="227.576" y="-136" font-family="Arial Italic" font-size="10.00" fill="#999999">string ∗</text>
<text text-anchor="start" x="187" y="-122" font-family="Arial" font-size="10.00">tags </text>
<text text-anchor="start" x="208.68" y="-122" font-family="Arial Italic" font-size="10.00" fill="#999999">hstore</text>
</g>
<!-- m_Operator -->
<g id="node2" class="node"><title>m_Operator</title>
<path fill="none" stroke="black" d="M12,-113.5C12,-113.5 132,-113.5 132,-113.5 138,-113.5 144,-119.5 144,-125.5 144,-125.5 144,-184.5 144,-184.5 144,-190.5 138,-196.5 132,-196.5 132,-196.5 12,-196.5 12,-196.5 6,-196.5 0,-190.5 0,-184.5 0,-184.5 0,-125.5 0,-125.5 0,-119.5 6,-113.5 12,-113.5"/>
<text text-anchor="start" x="46.7727" y="-183.7" font-family="Arial Bold" font-size="11.00">Operator</text>
<polyline fill="none" stroke="black" points="0,-176.5 144,-176.5 "/>
<text text-anchor="start" x="7" y="-163" font-family="Arial" font-size="10.00">geometry </text>
<text text-anchor="start" x="51.4629" y="-163" font-family="Arial Italic" font-size="10.00" fill="#999999">spatial</text>
<text text-anchor="start" x="7" y="-150" font-family="Arial" font-size="10.00">name </text>
<text text-anchor="start" x="34.793" y="-150" font-family="Arial Italic" font-size="10.00" fill="#999999">string</text>
<text text-anchor="start" x="7" y="-137" font-family="Arial" font-size="10.00">onestop_id </text>
<text text-anchor="start" x="58.709" y="-137" font-family="Arial Italic" font-size="10.00" fill="#999999">string ∗</text>
<text text-anchor="start" x="7" y="-123" font-family="Arial" font-size="10.00">tags </text>
<text text-anchor="start" x="28.6797" y="-123" font-family="Arial Italic" font-size="10.00" fill="#999999">hstore</text>
</g>
<!-- m_Operator&#45;&gt;m_Identifier -->
<g id="edge1" class="edge"><title>m_Operator&#45;&gt;m_Identifier</title>
<path fill="none" stroke="black" d="M144.118,-152.203C152.886,-151.858 161.896,-151.504 170.787,-151.154"/>
<polygon fill="black" stroke="black" points="171.126,-154.294 179.995,-150.792 170.878,-147.999 171.126,-154.294"/>
</g>
<!-- m_OperatorServingStop -->
<g id="node3" class="node"><title>m_OperatorServingStop</title>
<path fill="none" stroke="black" d="M192,-33.5C192,-33.5 312,-33.5 312,-33.5 318,-33.5 324,-39.5 324,-45.5 324,-45.5 324,-64.5 324,-64.5 324,-70.5 318,-76.5 312,-76.5 312,-76.5 192,-76.5 192,-76.5 186,-76.5 180,-70.5 180,-64.5 180,-64.5 180,-45.5 180,-45.5 180,-39.5 186,-33.5 192,-33.5"/>
<text text-anchor="start" x="194.38" y="-63.7" font-family="Arial Bold" font-size="11.00">OperatorServingStop</text>
<polyline fill="none" stroke="black" points="180,-56.5 324,-56.5 "/>
<text text-anchor="start" x="187" y="-43" font-family="Arial" font-size="10.00">tags </text>
<text text-anchor="start" x="208.68" y="-43" font-family="Arial Italic" font-size="10.00" fill="#999999">hstore</text>
</g>
<!-- m_Operator&#45;&gt;m_OperatorServingStop -->
<g id="edge3" class="edge"><title>m_Operator&#45;&gt;m_OperatorServingStop</title>
<path fill="none" stroke="black" d="M144.118,-115.046C164.44,-103.629 186.059,-91.4838 204.498,-81.1248"/>
<polygon fill="black" stroke="black" points="206.426,-83.6545 212.73,-76.5 203.341,-78.1619 206.426,-83.6545"/>
</g>
<!-- m_Stop -->
<g id="node4" class="node"><title>m_Stop</title>
<path fill="none" stroke="black" d="M12,-0.5C12,-0.5 132,-0.5 132,-0.5 138,-0.5 144,-6.5 144,-12.5 144,-12.5 144,-71.5 144,-71.5 144,-77.5 138,-83.5 132,-83.5 132,-83.5 12,-83.5 12,-83.5 6,-83.5 0,-77.5 0,-71.5 0,-71.5 0,-12.5 0,-12.5 0,-6.5 6,-0.5 12,-0.5"/>
<text text-anchor="start" x="57.7808" y="-70.7" font-family="Arial Bold" font-size="11.00">Stop</text>
<polyline fill="none" stroke="black" points="0,-63.5 144,-63.5 "/>
<text text-anchor="start" x="7" y="-50" font-family="Arial" font-size="10.00">geometry </text>
<text text-anchor="start" x="51.4629" y="-50" font-family="Arial Italic" font-size="10.00" fill="#999999">spatial</text>
<text text-anchor="start" x="7" y="-37" font-family="Arial" font-size="10.00">name </text>
<text text-anchor="start" x="34.793" y="-37" font-family="Arial Italic" font-size="10.00" fill="#999999">string</text>
<text text-anchor="start" x="7" y="-24" font-family="Arial" font-size="10.00">onestop_id </text>
<text text-anchor="start" x="58.709" y="-24" font-family="Arial Italic" font-size="10.00" fill="#999999">string ∗</text>
<text text-anchor="start" x="7" y="-10" font-family="Arial" font-size="10.00">tags </text>
<text text-anchor="start" x="28.6797" y="-10" font-family="Arial Italic" font-size="10.00" fill="#999999">hstore</text>
</g>
<!-- m_Operator&#45;&gt;m_Stop -->
<g id="edge4" class="edge"><title>m_Operator&#45;&gt;m_Stop</title>
<path fill="none" stroke="black" stroke-dasharray="1,5" d="M72,-113.36C72,-106.616 72,-99.8726 72,-93.1292"/>
<polygon fill="black" stroke="black" points="75.1501,-92.9336 72,-83.9336 68.8501,-92.9336 75.1501,-92.9336"/>
</g>
<!-- m_Stop&#45;&gt;m_Identifier -->
<g id="edge2" class="edge"><title>m_Stop&#45;&gt;m_Identifier</title>
<path fill="none" stroke="black" d="M142.839,-83.5898C156.067,-91.467 169.888,-99.6973 183.056,-107.539"/>
<polygon fill="black" stroke="black" points="181.815,-110.466 191.16,-112.365 185.039,-105.053 181.815,-110.466"/>
</g>
<!-- m_Stop&#45;&gt;m_OperatorServingStop -->
<g id="edge5" class="edge"><title>m_Stop&#45;&gt;m_OperatorServingStop</title>
<path fill="none" stroke="black" d="M144.118,-47.194C152.886,-47.8344 161.896,-48.4924 170.787,-49.1418"/>
<polygon fill="black" stroke="black" points="170.79,-52.3002 179.995,-49.8143 171.249,-46.017 170.79,-52.3002"/>
</g>
</g>
</svg>
