<?xml version="1.0" encoding="UTF-8" standalone="no"?>
<!DOCTYPE svg PUBLIC "-//W3C//DTD SVG 1.1//EN"
 "http://www.w3.org/Graphics/SVG/1.1/DTD/svg11.dtd">
<!-- Generated by graphviz version 2.38.0 (20140413.2041)
 -->
<!-- Title: Onestop Pages: 1 -->
<svg width="562pt" height="509pt"
 viewBox="0.00 0.00 561.60 509.22" xmlns="http://www.w3.org/2000/svg" xmlns:xlink="http://www.w3.org/1999/xlink">
<g id="graph0" class="graph" transform="scale(1 1) rotate(0) translate(28.8 480.419)">
<title>Onestop</title>
<polygon fill="white" stroke="none" points="-28.8,28.8 -28.8,-480.419 532.8,-480.419 532.8,28.8 -28.8,28.8"/>
<text text-anchor="middle" x="252" y="-437.219" font-family="Arial Bold" font-size="13.00">Onestop domain model</text>
<!-- m_Feed -->
<g id="node1" class="node"><title>m_Feed</title>
<path fill="none" stroke="black" d="M12,-260C12,-260 132,-260 132,-260 138,-260 144,-266 144,-272 144,-272 144,-344 144,-344 144,-350 138,-356 132,-356 132,-356 12,-356 12,-356 6,-356 0,-350 0,-344 0,-344 0,-272 0,-272 0,-266 6,-260 12,-260"/>
<text text-anchor="start" x="57.1631" y="-343.2" font-family="Arial Bold" font-size="11.00">Feed</text>
<polyline fill="none" stroke="black" points="0,-336 144,-336 "/>
<text text-anchor="start" x="7" y="-323" font-family="Arial" font-size="10.00">feed_format </text>
<text text-anchor="start" x="63.1426" y="-323" font-family="Arial Italic" font-size="10.00" fill="#999999">string</text>
<text text-anchor="start" x="7" y="-310" font-family="Arial" font-size="10.00">last_fetched_at </text>
<text text-anchor="start" x="77.6055" y="-310" font-family="Arial Italic" font-size="10.00" fill="#999999">datetime</text>
<text text-anchor="start" x="7" y="-297" font-family="Arial" font-size="10.00">last_imported_at </text>
<text text-anchor="start" x="83.709" y="-297" font-family="Arial Italic" font-size="10.00" fill="#999999">datetime</text>
<text text-anchor="start" x="7" y="-284" font-family="Arial" font-size="10.00">tags </text>
<text text-anchor="start" x="28.6797" y="-284" font-family="Arial Italic" font-size="10.00" fill="#999999">hstore</text>
<text text-anchor="start" x="7" y="-271" font-family="Arial" font-size="10.00">url </text>
<text text-anchor="start" x="20.8916" y="-271" font-family="Arial Italic" font-size="10.00" fill="#999999">string ∗</text>
</g>
<!-- m_FeedImport -->
<g id="node2" class="node"><title>m_FeedImport</title>
<path fill="none" stroke="black" d="M192,-261.5C192,-261.5 312,-261.5 312,-261.5 318,-261.5 324,-267.5 324,-273.5 324,-273.5 324,-370.5 324,-370.5 324,-376.5 318,-382.5 312,-382.5 312,-382.5 192,-382.5 192,-382.5 186,-382.5 180,-376.5 180,-370.5 180,-370.5 180,-273.5 180,-273.5 180,-267.5 186,-261.5 192,-261.5"/>
<text text-anchor="start" x="220.053" y="-369.7" font-family="Arial Bold" font-size="11.00">FeedImport</text>
<polyline fill="none" stroke="black" points="180,-362.5 324,-362.5 "/>
<text text-anchor="start" x="187" y="-349" font-family="Arial" font-size="10.00">file_content_type </text>
<text text-anchor="start" x="265.389" y="-349" font-family="Arial Italic" font-size="10.00" fill="#999999">string</text>
<text text-anchor="start" x="187" y="-336" font-family="Arial" font-size="10.00">file_file_name </text>
<text text-anchor="start" x="251.482" y="-336" font-family="Arial Italic" font-size="10.00" fill="#999999">string</text>
<text text-anchor="start" x="187" y="-323" font-family="Arial" font-size="10.00">file_file_size </text>
<text text-anchor="start" x="244.251" y="-323" font-family="Arial Italic" font-size="10.00" fill="#999999">integer</text>
<text text-anchor="start" x="187" y="-310" font-family="Arial" font-size="10.00">file_fingerprint </text>
<text text-anchor="start" x="252.591" y="-310" font-family="Arial Italic" font-size="10.00" fill="#999999">string</text>
<text text-anchor="start" x="187" y="-297" font-family="Arial" font-size="10.00">file_updated_at </text>
<text text-anchor="start" x="258.172" y="-297" font-family="Arial Italic" font-size="10.00" fill="#999999">datetime</text>
<text text-anchor="start" x="187" y="-284" font-family="Arial" font-size="10.00">successful_fetch </text>
<text text-anchor="start" x="263.704" y="-284" font-family="Arial Italic" font-size="10.00" fill="#999999">boolean</text>
<text text-anchor="start" x="187" y="-271" font-family="Arial" font-size="10.00">successful_import </text>
<text text-anchor="start" x="269.808" y="-271" font-family="Arial Italic" font-size="10.00" fill="#999999">boolean</text>
</g>
<!-- m_Feed&#45;&gt;m_FeedImport -->
<g id="edge3" class="edge"><title>m_Feed&#45;&gt;m_FeedImport</title>
<path fill="none" stroke="black" d="M144.118,-313.594C152.886,-314.283 161.896,-314.992 170.787,-315.691"/>
<polygon fill="black" stroke="black" points="170.776,-318.85 179.995,-316.415 171.27,-312.569 170.776,-318.85"/>
</g>
<!-- m_FeedImportError -->
<g id="node3" class="node"><title>m_FeedImportError</title>
<path fill="none" stroke="black" d="M372,-294C372,-294 492,-294 492,-294 498,-294 504,-300 504,-306 504,-306 504,-338 504,-338 504,-344 498,-350 492,-350 492,-350 372,-350 372,-350 366,-350 360,-344 360,-338 360,-338 360,-306 360,-306 360,-300 366,-294 372,-294"/>
<text text-anchor="start" x="386.604" y="-337.2" font-family="Arial Bold" font-size="11.00">FeedImportError</text>
<polyline fill="none" stroke="black" points="360,-330 504,-330 "/>
<text text-anchor="start" x="367" y="-317" font-family="Arial" font-size="10.00">body </text>
<text text-anchor="start" x="391.463" y="-317" font-family="Arial Italic" font-size="10.00" fill="#999999">text</text>
<text text-anchor="start" x="367" y="-304" font-family="Arial" font-size="10.00">error_type </text>
<text text-anchor="start" x="415.354" y="-304" font-family="Arial Italic" font-size="10.00" fill="#999999">string</text>
</g>
<!-- m_Feed&#45;&gt;m_FeedImportError -->
<g id="edge4" class="edge"><title>m_Feed&#45;&gt;m_FeedImportError</title>
<path fill="none" stroke="black" stroke-dasharray="1,5" d="M116.029,-356.123C133.964,-372.718 156.169,-389.31 180,-398 240.127,-419.925 263.027,-417.45 324,-398 350.293,-389.612 375.659,-372.148 395.089,-356.074"/>
<polygon fill="black" stroke="black" points="397.146,-358.46 401.97,-350.234 393.07,-353.656 397.146,-358.46"/>
</g>
<!-- m_Operator -->
<g id="node5" class="node"><title>m_Operator</title>
<path fill="none" stroke="black" d="M12,-120.5C12,-120.5 132,-120.5 132,-120.5 138,-120.5 144,-126.5 144,-132.5 144,-132.5 144,-191.5 144,-191.5 144,-197.5 138,-203.5 132,-203.5 132,-203.5 12,-203.5 12,-203.5 6,-203.5 0,-197.5 0,-191.5 0,-191.5 0,-132.5 0,-132.5 0,-126.5 6,-120.5 12,-120.5"/>
<text text-anchor="start" x="46.7727" y="-190.7" font-family="Arial Bold" font-size="11.00">Operator</text>
<polyline fill="none" stroke="black" points="0,-183.5 144,-183.5 "/>
<text text-anchor="start" x="7" y="-170" font-family="Arial" font-size="10.00">geometry </text>
<text text-anchor="start" x="51.4629" y="-170" font-family="Arial Italic" font-size="10.00" fill="#999999">spatial</text>
<text text-anchor="start" x="7" y="-157" font-family="Arial" font-size="10.00">name </text>
<text text-anchor="start" x="34.793" y="-157" font-family="Arial Italic" font-size="10.00" fill="#999999">string</text>
<text text-anchor="start" x="7" y="-144" font-family="Arial" font-size="10.00">onestop_id </text>
<text text-anchor="start" x="58.709" y="-144" font-family="Arial Italic" font-size="10.00" fill="#999999">string ∗</text>
<text text-anchor="start" x="7" y="-130" font-family="Arial" font-size="10.00">tags </text>
<text text-anchor="start" x="28.6797" y="-130" font-family="Arial Italic" font-size="10.00" fill="#999999">hstore</text>
</g>
<!-- m_Feed&#45;&gt;m_Operator -->
<g id="edge6" class="edge"><title>m_Feed&#45;&gt;m_Operator</title>
<path fill="none" stroke="black" stroke-dasharray="1,5" d="M72,-259.893C72,-244.217 72,-228.54 72,-212.863"/>
<polygon fill="black" stroke="black" points="75.1501,-212.633 72,-203.633 68.8501,-212.633 75.1501,-212.633"/>
</g>
<!-- m_OperatorInFeed -->
<g id="node6" class="node"><title>m_OperatorInFeed</title>
<path fill="none" stroke="black" d="M192,-175C192,-175 312,-175 312,-175 318,-175 324,-181 324,-187 324,-187 324,-219 324,-219 324,-225 318,-231 312,-231 312,-231 192,-231 192,-231 186,-231 180,-225 180,-219 180,-219 180,-187 180,-187 180,-181 186,-175 192,-175"/>
<text text-anchor="start" x="209.048" y="-218.2" font-family="Arial Bold" font-size="11.00">OperatorInFeed</text>
<polyline fill="none" stroke="black" points="180,-211 324,-211 "/>
<text text-anchor="start" x="187" y="-198" font-family="Arial" font-size="10.00">gtfs_agency_id </text>
<text text-anchor="start" x="257.049" y="-198" font-family="Arial Italic" font-size="10.00" fill="#999999">string</text>
<text text-anchor="start" x="187" y="-185" font-family="Arial" font-size="10.00">onestop_id </text>
<text text-anchor="start" x="238.709" y="-185" font-family="Arial Italic" font-size="10.00" fill="#999999">string</text>
</g>
<!-- m_Feed&#45;&gt;m_OperatorInFeed -->
<g id="edge5" class="edge"><title>m_Feed&#45;&gt;m_OperatorInFeed</title>
<path fill="none" stroke="black" d="M144.118,-266.049C161.261,-255.936 179.327,-245.279 195.628,-235.663"/>
<polygon fill="black" stroke="black" points="197.326,-238.319 203.477,-231.033 194.125,-232.893 197.326,-238.319"/>
</g>
<!-- m_FeedImport&#45;&gt;m_FeedImportError -->
<g id="edge7" class="edge"><title>m_FeedImport&#45;&gt;m_FeedImportError</title>
<path fill="none" stroke="black" d="M324.118,-322C332.886,-322 341.896,-322 350.787,-322"/>
<polygon fill="black" stroke="black" points="350.995,-325.15 359.995,-322 350.995,-318.85 350.995,-325.15"/>
</g>
<!-- m_Identifier -->
<g id="node4" class="node"><title>m_Identifier</title>
<path fill="none" stroke="black" d="M192,-0.5C192,-0.5 312,-0.5 312,-0.5 318,-0.5 324,-6.5 324,-12.5 324,-12.5 324,-59.5 324,-59.5 324,-65.5 318,-71.5 312,-71.5 312,-71.5 192,-71.5 192,-71.5 186,-71.5 180,-65.5 180,-59.5 180,-59.5 180,-12.5 180,-12.5 180,-6.5 186,-0.5 192,-0.5"/>
<text text-anchor="start" x="226.775" y="-58.7" font-family="Arial Bold" font-size="11.00">Identifier</text>
<polyline fill="none" stroke="black" points="180,-51.5 324,-51.5 "/>
<text text-anchor="start" x="187" y="-38" font-family="Arial" font-size="10.00">identified_entity_type </text>
<text text-anchor="start" x="283.733" y="-38" font-family="Arial Italic" font-size="10.00" fill="#999999">string ∗</text>
<text text-anchor="start" x="187" y="-24" font-family="Arial" font-size="10.00">identifier </text>
<text text-anchor="start" x="227.576" y="-24" font-family="Arial Italic" font-size="10.00" fill="#999999">string ∗</text>
<text text-anchor="start" x="187" y="-10" font-family="Arial" font-size="10.00">tags </text>
<text text-anchor="start" x="208.68" y="-10" font-family="Arial Italic" font-size="10.00" fill="#999999">hstore</text>
</g>
<!-- m_Operator&#45;&gt;m_Identifier -->
<g id="edge1" class="edge"><title>m_Operator&#45;&gt;m_Identifier</title>
<path fill="none" stroke="black" d="M131.558,-120.343C147.28,-109.176 164.28,-97.1176 180,-86 184.077,-83.1163 188.288,-80.1418 192.53,-77.1481"/>
<polygon fill="black" stroke="black" points="194.637,-79.5164 200.176,-71.7545 191.006,-74.3684 194.637,-79.5164"/>
</g>
<!-- m_Operator&#45;&gt;m_OperatorInFeed -->
<g id="edge10" class="edge"><title>m_Operator&#45;&gt;m_OperatorInFeed</title>
<path fill="none" stroke="black" d="M144.118,-178.381C152.978,-180.422 162.085,-182.52 171.068,-184.589"/>
<polygon fill="black" stroke="black" points="170.518,-187.694 179.995,-186.645 171.932,-181.555 170.518,-187.694"/>
</g>
<!-- m_OperatorServingStop -->
<g id="node7" class="node"><title>m_OperatorServingStop</title>
<path fill="none" stroke="black" d="M192,-101.5C192,-101.5 312,-101.5 312,-101.5 318,-101.5 324,-107.5 324,-113.5 324,-113.5 324,-132.5 324,-132.5 324,-138.5 318,-144.5 312,-144.5 312,-144.5 192,-144.5 192,-144.5 186,-144.5 180,-138.5 180,-132.5 180,-132.5 180,-113.5 180,-113.5 180,-107.5 186,-101.5 192,-101.5"/>
<text text-anchor="start" x="194.38" y="-131.7" font-family="Arial Bold" font-size="11.00">OperatorServingStop</text>
<polyline fill="none" stroke="black" points="180,-124.5 324,-124.5 "/>
<text text-anchor="start" x="187" y="-111" font-family="Arial" font-size="10.00">tags </text>
<text text-anchor="start" x="208.68" y="-111" font-family="Arial Italic" font-size="10.00" fill="#999999">hstore</text>
</g>
<!-- m_Operator&#45;&gt;m_OperatorServingStop -->
<g id="edge8" class="edge"><title>m_Operator&#45;&gt;m_OperatorServingStop</title>
<path fill="none" stroke="black" d="M144.118,-146.418C152.978,-144.477 162.085,-142.481 171.068,-140.513"/>
<polygon fill="black" stroke="black" points="171.878,-143.561 179.995,-138.557 170.53,-137.406 171.878,-143.561"/>
</g>
<!-- m_Stop -->
<g id="node8" class="node"><title>m_Stop</title>
<path fill="none" stroke="black" d="M12,-7.5C12,-7.5 132,-7.5 132,-7.5 138,-7.5 144,-13.5 144,-19.5 144,-19.5 144,-78.5 144,-78.5 144,-84.5 138,-90.5 132,-90.5 132,-90.5 12,-90.5 12,-90.5 6,-90.5 0,-84.5 0,-78.5 0,-78.5 0,-19.5 0,-19.5 0,-13.5 6,-7.5 12,-7.5"/>
<text text-anchor="start" x="57.7808" y="-77.7" font-family="Arial Bold" font-size="11.00">Stop</text>
<polyline fill="none" stroke="black" points="0,-70.5 144,-70.5 "/>
<text text-anchor="start" x="7" y="-57" font-family="Arial" font-size="10.00">geometry </text>
<text text-anchor="start" x="51.4629" y="-57" font-family="Arial Italic" font-size="10.00" fill="#999999">spatial</text>
<text text-anchor="start" x="7" y="-44" font-family="Arial" font-size="10.00">name </text>
<text text-anchor="start" x="34.793" y="-44" font-family="Arial Italic" font-size="10.00" fill="#999999">string</text>
<text text-anchor="start" x="7" y="-31" font-family="Arial" font-size="10.00">onestop_id </text>
<text text-anchor="start" x="58.709" y="-31" font-family="Arial Italic" font-size="10.00" fill="#999999">string ∗</text>
<text text-anchor="start" x="7" y="-17" font-family="Arial" font-size="10.00">tags </text>
<text text-anchor="start" x="28.6797" y="-17" font-family="Arial Italic" font-size="10.00" fill="#999999">hstore</text>
</g>
<!-- m_Operator&#45;&gt;m_Stop -->
<g id="edge9" class="edge"><title>m_Operator&#45;&gt;m_Stop</title>
<path fill="none" stroke="black" stroke-dasharray="1,5" d="M72,-120.36C72,-113.616 72,-106.873 72,-100.129"/>
<polygon fill="black" stroke="black" points="75.1501,-99.9336 72,-90.9336 68.8501,-99.9336 75.1501,-99.9336"/>
</g>
<!-- m_Stop&#45;&gt;m_Identifier -->
<g id="edge2" class="edge"><title>m_Stop&#45;&gt;m_Identifier</title>
<path fill="none" stroke="black" d="M144.118,-43.806C152.886,-43.1656 161.896,-42.5076 170.787,-41.8582"/>
<polygon fill="black" stroke="black" points="171.249,-44.983 179.995,-41.1857 170.79,-38.6998 171.249,-44.983"/>
</g>
<!-- m_Stop&#45;&gt;m_OperatorServingStop -->
<g id="edge11" class="edge"><title>m_Stop&#45;&gt;m_OperatorServingStop</title>
<path fill="none" stroke="black" d="M144.118,-78.5658C159.498,-84.9598 175.621,-91.6628 190.547,-97.8678"/>
<polygon fill="black" stroke="black" points="189.662,-100.911 199.182,-101.457 192.08,-95.0939 189.662,-100.911"/>
</g>
</g>
</svg>
