<?xml version="1.0" encoding="UTF-8" standalone="no"?>
<!DOCTYPE svg PUBLIC "-//W3C//DTD SVG 1.1//EN"
 "http://www.w3.org/Graphics/SVG/1.1/DTD/svg11.dtd">
<!-- Generated by graphviz version 2.38.0 (20140413.2041)
 -->
<!-- Title: TransitlandDatastore Pages: 1 -->
<svg width="1102pt" height="1122pt"
 viewBox="0.00 0.00 1101.60 1121.57" xmlns="http://www.w3.org/2000/svg" xmlns:xlink="http://www.w3.org/1999/xlink">
<g id="graph0" class="graph" transform="scale(1 1) rotate(0) translate(28.8 1092.77)">
<title>TransitlandDatastore</title>
<polygon fill="white" stroke="none" points="-28.8,28.8 -28.8,-1092.77 1072.8,-1092.77 1072.8,28.8 -28.8,28.8"/>
<text text-anchor="middle" x="522" y="-1049.57" font-family="Arial BoldMT" font-size="13.00">TransitlandDatastore domain model</text>
<!-- m_Changeset -->
<g id="node1" class="node"><title>m_Changeset</title>
<path fill="none" stroke="black" d="M12,-350.716C12,-350.716 132,-350.716 132,-350.716 138,-350.716 144,-356.716 144,-362.716 144,-362.716 144,-419.716 144,-419.716 144,-425.716 138,-431.716 132,-431.716 132,-431.716 12,-431.716 12,-431.716 6,-431.716 0,-425.716 0,-419.716 0,-419.716 0,-362.716 0,-362.716 0,-356.716 6,-350.716 12,-350.716"/>
<text text-anchor="start" x="43.397" y="-418.416" font-family="Arial BoldMT" font-size="11.00">Changeset</text>
<polyline fill="none" stroke="black" points="0,-412.716 144,-412.716 "/>
<text text-anchor="start" x="7" y="-399.716" font-family="ArialMT" font-size="10.00">applied </text>
<text text-anchor="start" x="42.0293" y="-399.716" font-family="Arail ItalicMT" font-size="10.00" fill="#999999">boolean</text>
<text text-anchor="start" x="7" y="-386.716" font-family="ArialMT" font-size="10.00">applied_at </text>
<text text-anchor="start" x="55.9307" y="-386.716" font-family="Arail ItalicMT" font-size="10.00" fill="#999999">datetime</text>
<text text-anchor="start" x="7" y="-373.716" font-family="ArialMT" font-size="10.00">notes </text>
<text text-anchor="start" x="34.2412" y="-373.716" font-family="Arail ItalicMT" font-size="10.00" fill="#999999">text</text>
<text text-anchor="start" x="7" y="-360.716" font-family="ArialMT" font-size="10.00">payload </text>
<text text-anchor="start" x="44.8076" y="-360.716" font-family="Arail ItalicMT" font-size="10.00" fill="#999999">json</text>
</g>
<!-- m_Identifier -->
<g id="node2" class="node"><title>m_Identifier</title>
<path fill="none" stroke="black" d="M732,-615.716C732,-615.716 852,-615.716 852,-615.716 858,-615.716 864,-621.716 864,-627.716 864,-627.716 864,-684.716 864,-684.716 864,-690.716 858,-696.716 852,-696.716 852,-696.716 732,-696.716 732,-696.716 726,-696.716 720,-690.716 720,-684.716 720,-684.716 720,-627.716 720,-627.716 720,-621.716 726,-615.716 732,-615.716"/>
<text text-anchor="start" x="768.905" y="-683.416" font-family="Arial BoldMT" font-size="11.00">Identifier</text>
<polyline fill="none" stroke="black" points="720,-677.716 864,-677.716 "/>
<text text-anchor="start" x="727" y="-664.716" font-family="ArialMT" font-size="10.00">identified_entity_type </text>
<text text-anchor="start" x="823.733" y="-664.716" font-family="Arail ItalicMT" font-size="10.00" fill="#999999">string ∗</text>
<text text-anchor="start" x="727" y="-651.716" font-family="ArialMT" font-size="10.00">identifier </text>
<text text-anchor="start" x="767.576" y="-651.716" font-family="Arail ItalicMT" font-size="10.00" fill="#999999">string ∗</text>
<text text-anchor="start" x="727" y="-638.716" font-family="ArialMT" font-size="10.00">tags </text>
<text text-anchor="start" x="748.68" y="-638.716" font-family="Arail ItalicMT" font-size="10.00" fill="#999999">hstore</text>
<text text-anchor="start" x="727" y="-625.716" font-family="ArialMT" font-size="10.00">version </text>
<text text-anchor="start" x="762.015" y="-625.716" font-family="Arail ItalicMT" font-size="10.00" fill="#999999">integer</text>
</g>
<!-- m_Changeset&#45;&gt;m_Identifier -->
<g id="edge11" class="edge"><title>m_Changeset&#45;&gt;m_Identifier</title>
<path fill="none" stroke="black" d="M253,-830.216C298.121,-859.285 309.426,-792.194 360,-774.216 498.468,-724.991 544.814,-755.372 684,-708.216 693.061,-705.146 702.346,-701.484 711.478,-697.546"/>
<polygon fill="black" stroke="black" points="712.853,-700.382 719.81,-693.86 710.305,-694.621 712.853,-700.382"/>
<path fill="none" stroke="black" d="M75.144,-432.001C82.3733,-522.517 113.894,-739.349 251,-830.216"/>
</g>
<!-- m_OldIdentifier -->
<g id="node3" class="node"><title>m_OldIdentifier</title>
<path fill="none" stroke="black" d="M912,-499.716C912,-499.716 1032,-499.716 1032,-499.716 1038,-499.716 1044,-505.716 1044,-511.716 1044,-511.716 1044,-568.716 1044,-568.716 1044,-574.716 1038,-580.716 1032,-580.716 1032,-580.716 912,-580.716 912,-580.716 906,-580.716 900,-574.716 900,-568.716 900,-568.716 900,-511.716 900,-511.716 900,-505.716 906,-499.716 912,-499.716"/>
<text text-anchor="start" x="940.346" y="-567.416" font-family="Arial BoldMT" font-size="11.00">OldIdentifier</text>
<polyline fill="none" stroke="black" points="900,-561.716 1044,-561.716 "/>
<text text-anchor="start" x="907" y="-548.716" font-family="ArialMT" font-size="10.00">identified_entity_type </text>
<text text-anchor="start" x="1003.73" y="-548.716" font-family="Arail ItalicMT" font-size="10.00" fill="#999999">string</text>
<text text-anchor="start" x="907" y="-535.716" font-family="ArialMT" font-size="10.00">identifier </text>
<text text-anchor="start" x="947.576" y="-535.716" font-family="Arail ItalicMT" font-size="10.00" fill="#999999">string</text>
<text text-anchor="start" x="907" y="-522.716" font-family="ArialMT" font-size="10.00">tags </text>
<text text-anchor="start" x="928.68" y="-522.716" font-family="Arail ItalicMT" font-size="10.00" fill="#999999">hstore</text>
<text text-anchor="start" x="907" y="-509.716" font-family="ArialMT" font-size="10.00">version </text>
<text text-anchor="start" x="942.015" y="-509.716" font-family="Arail ItalicMT" font-size="10.00" fill="#999999">integer</text>
</g>
<!-- m_Changeset&#45;&gt;m_OldIdentifier -->
<g id="edge12" class="edge"><title>m_Changeset&#45;&gt;m_OldIdentifier</title>
<path fill="none" stroke="black" d="M793,-64.2156C823.857,-78.6965 841.808,-67.3434 864,-93.2156 890.056,-123.592 940.982,-380.855 961.8,-490.759"/>
<polygon fill="black" stroke="black" points="958.717,-491.412 963.483,-499.671 964.908,-490.242 958.717,-491.412"/>
<path fill="none" stroke="black" d="M613,-64.2156C691.9,-69.9924 719.383,-30.6068 791,-64.2156"/>
<path fill="none" stroke="black" d="M433,-8.2156C513.883,10.1123 528.288,-58.1597 611,-64.2156"/>
</g>
<!-- m_OldOperator -->
<g id="node4" class="node"><title>m_OldOperator</title>
<path fill="none" stroke="black" d="M372,-495.216C372,-495.216 492,-495.216 492,-495.216 498,-495.216 504,-501.216 504,-507.216 504,-507.216 504,-577.216 504,-577.216 504,-583.216 498,-589.216 492,-589.216 492,-589.216 372,-589.216 372,-589.216 366,-589.216 360,-583.216 360,-577.216 360,-577.216 360,-507.216 360,-507.216 360,-501.216 366,-495.216 372,-495.216"/>
<text text-anchor="start" x="399.737" y="-575.916" font-family="Arial BoldMT" font-size="11.00">OldOperator</text>
<polyline fill="none" stroke="black" points="360,-570.216 504,-570.216 "/>
<text text-anchor="start" x="367" y="-556.716" font-family="ArialMT" font-size="10.00">geometry </text>
<text text-anchor="start" x="411.463" y="-556.716" font-family="Arail ItalicMT" font-size="10.00" fill="#999999">spatial</text>
<text text-anchor="start" x="367" y="-543.716" font-family="ArialMT" font-size="10.00">name </text>
<text text-anchor="start" x="394.793" y="-543.716" font-family="Arail ItalicMT" font-size="10.00" fill="#999999">string</text>
<text text-anchor="start" x="367" y="-530.716" font-family="ArialMT" font-size="10.00">onestop_id </text>
<text text-anchor="start" x="418.709" y="-530.716" font-family="Arail ItalicMT" font-size="10.00" fill="#999999">string</text>
<text text-anchor="start" x="367" y="-517.716" font-family="ArialMT" font-size="10.00">tags </text>
<text text-anchor="start" x="388.68" y="-517.716" font-family="Arail ItalicMT" font-size="10.00" fill="#999999">hstore</text>
<text text-anchor="start" x="367" y="-504.716" font-family="ArialMT" font-size="10.00">version </text>
<text text-anchor="start" x="402.015" y="-504.716" font-family="Arail ItalicMT" font-size="10.00" fill="#999999">integer</text>
</g>
<!-- m_Changeset&#45;&gt;m_OldOperator -->
<g id="edge4" class="edge"><title>m_Changeset&#45;&gt;m_OldOperator</title>
<path fill="none" stroke="black" d="M253,-391.216C268.427,-392.056 328.64,-445.479 374.806,-488.54"/>
<polygon fill="black" stroke="black" points="372.784,-490.962 381.508,-494.81 377.088,-486.361 372.784,-490.962"/>
</g>
<!-- m_OldOperatorServingStop -->
<g id="node5" class="node"><title>m_OldOperatorServingStop</title>
<path fill="none" stroke="black" d="M732,-108.716C732,-108.716 852,-108.716 852,-108.716 858,-108.716 864,-114.716 864,-120.716 864,-120.716 864,-177.716 864,-177.716 864,-183.716 858,-189.716 852,-189.716 852,-189.716 732,-189.716 732,-189.716 726,-189.716 720,-183.716 720,-177.716 720,-177.716 720,-120.716 720,-120.716 720,-114.716 726,-108.716 732,-108.716"/>
<text text-anchor="start" x="729.774" y="-176.416" font-family="Arial BoldMT" font-size="11.00">OldOperatorServingStop</text>
<polyline fill="none" stroke="black" points="720,-170.716 864,-170.716 "/>
<text text-anchor="start" x="727" y="-157.716" font-family="ArialMT" font-size="10.00">operator_type </text>
<text text-anchor="start" x="791.487" y="-157.716" font-family="Arail ItalicMT" font-size="10.00" fill="#999999">string</text>
<text text-anchor="start" x="727" y="-144.716" font-family="ArialMT" font-size="10.00">stop_type </text>
<text text-anchor="start" x="773.143" y="-144.716" font-family="Arail ItalicMT" font-size="10.00" fill="#999999">string</text>
<text text-anchor="start" x="727" y="-131.716" font-family="ArialMT" font-size="10.00">tags </text>
<text text-anchor="start" x="748.68" y="-131.716" font-family="Arail ItalicMT" font-size="10.00" fill="#999999">hstore</text>
<text text-anchor="start" x="727" y="-118.716" font-family="ArialMT" font-size="10.00">version </text>
<text text-anchor="start" x="762.015" y="-118.716" font-family="Arail ItalicMT" font-size="10.00" fill="#999999">integer</text>
</g>
<!-- m_Changeset&#45;&gt;m_OldOperatorServingStop -->
<g id="edge8" class="edge"><title>m_Changeset&#45;&gt;m_OldOperatorServingStop</title>
<path fill="none" stroke="black" d="M613,-129.216C644.591,-135.063 679.673,-139.448 710.285,-142.599"/>
<polygon fill="black" stroke="black" points="710.363,-145.772 719.632,-143.537 710.992,-139.504 710.363,-145.772"/>
<path fill="none" stroke="black" d="M253,-129.216C316.499,-81.289 532.773,-114.736 611,-129.216"/>
</g>
<!-- m_OldRoute -->
<g id="node6" class="node"><title>m_OldRoute</title>
<path fill="none" stroke="black" d="M552,-848.716C552,-848.716 672,-848.716 672,-848.716 678,-848.716 684,-854.716 684,-860.716 684,-860.716 684,-943.716 684,-943.716 684,-949.716 678,-955.716 672,-955.716 672,-955.716 552,-955.716 552,-955.716 546,-955.716 540,-949.716 540,-943.716 540,-943.716 540,-860.716 540,-860.716 540,-854.716 546,-848.716 552,-848.716"/>
<text text-anchor="start" x="586.765" y="-942.416" font-family="Arial BoldMT" font-size="11.00">OldRoute</text>
<polyline fill="none" stroke="black" points="540,-936.716 684,-936.716 "/>
<text text-anchor="start" x="547" y="-923.716" font-family="ArialMT" font-size="10.00">name </text>
<text text-anchor="start" x="574.793" y="-923.716" font-family="Arail ItalicMT" font-size="10.00" fill="#999999">string</text>
<text text-anchor="start" x="547" y="-910.716" font-family="ArialMT" font-size="10.00">onestop_id </text>
<text text-anchor="start" x="598.709" y="-910.716" font-family="Arail ItalicMT" font-size="10.00" fill="#999999">string</text>
<text text-anchor="start" x="547" y="-897.716" font-family="ArialMT" font-size="10.00">operator_id </text>
<text text-anchor="start" x="600.369" y="-897.716" font-family="Arail ItalicMT" font-size="10.00" fill="#999999">integer</text>
<text text-anchor="start" x="547" y="-884.716" font-family="ArialMT" font-size="10.00">operator_type </text>
<text text-anchor="start" x="611.487" y="-884.716" font-family="Arail ItalicMT" font-size="10.00" fill="#999999">string</text>
<text text-anchor="start" x="547" y="-871.716" font-family="ArialMT" font-size="10.00">tags </text>
<text text-anchor="start" x="568.68" y="-871.716" font-family="Arail ItalicMT" font-size="10.00" fill="#999999">hstore</text>
<text text-anchor="start" x="547" y="-858.716" font-family="ArialMT" font-size="10.00">version </text>
<text text-anchor="start" x="582.015" y="-858.716" font-family="Arail ItalicMT" font-size="10.00" fill="#999999">integer</text>
</g>
<!-- m_Changeset&#45;&gt;m_OldRoute -->
<g id="edge6" class="edge"><title>m_Changeset&#45;&gt;m_OldRoute</title>
<path fill="none" stroke="black" d="M253,-830.216C297.576,-860.116 308.312,-871.748 360,-886.216 415.617,-901.783 480.767,-905.535 530.752,-905.525"/>
<polygon fill="black" stroke="black" points="530.918,-908.675 539.903,-905.482 530.888,-902.375 530.918,-908.675"/>
</g>
<!-- m_OldRouteServingStop -->
<g id="node7" class="node"><title>m_OldRouteServingStop</title>
<path fill="none" stroke="black" d="M912,-85.7156C912,-85.7156 1032,-85.7156 1032,-85.7156 1038,-85.7156 1044,-91.7156 1044,-97.7156 1044,-97.7156 1044,-154.716 1044,-154.716 1044,-160.716 1038,-166.716 1032,-166.716 1032,-166.716 912,-166.716 912,-166.716 906,-166.716 900,-160.716 900,-154.716 900,-154.716 900,-97.7156 900,-97.7156 900,-91.7156 906,-85.7156 912,-85.7156"/>
<text text-anchor="start" x="916.802" y="-153.416" font-family="Arial BoldMT" font-size="11.00">OldRouteServingStop</text>
<polyline fill="none" stroke="black" points="900,-147.716 1044,-147.716 "/>
<text text-anchor="start" x="907" y="-134.716" font-family="ArialMT" font-size="10.00">route_type </text>
<text text-anchor="start" x="957.034" y="-134.716" font-family="Arail ItalicMT" font-size="10.00" fill="#999999">string</text>
<text text-anchor="start" x="907" y="-121.716" font-family="ArialMT" font-size="10.00">stop_type </text>
<text text-anchor="start" x="953.143" y="-121.716" font-family="Arail ItalicMT" font-size="10.00" fill="#999999">string</text>
<text text-anchor="start" x="907" y="-108.716" font-family="ArialMT" font-size="10.00">tags </text>
<text text-anchor="start" x="928.68" y="-108.716" font-family="Arail ItalicMT" font-size="10.00" fill="#999999">hstore</text>
<text text-anchor="start" x="907" y="-95.7156" font-family="ArialMT" font-size="10.00">version </text>
<text text-anchor="start" x="942.015" y="-95.7156" font-family="Arail ItalicMT" font-size="10.00" fill="#999999">integer</text>
</g>
<!-- m_Changeset&#45;&gt;m_OldRouteServingStop -->
<g id="edge10" class="edge"><title>m_Changeset&#45;&gt;m_OldRouteServingStop</title>
<path fill="none" stroke="black" d="M90.9269,-350.5C117.916,-293.551 174.127,-190.253 251,-129.216"/>
<path fill="none" stroke="black" d="M253,-129.216C327.916,-69.7328 337.706,-29.3556 431,-8.2156"/>
<path fill="none" stroke="black" d="M613,-5.2156C725.312,4.84233 760.404,2.31348 864,-42.2156 884.979,-51.2329 905.374,-65.4211 922.634,-79.5879"/>
<polygon fill="black" stroke="black" points="920.916,-82.2597 929.831,-85.643 924.972,-77.4387 920.916,-82.2597"/>
<path fill="none" stroke="black" d="M433,-8.2156C510.166,9.26995 531.948,-8.55618 611,-5.2156"/>
</g>
<!-- m_OldStop -->
<g id="node8" class="node"><title>m_OldStop</title>
<path fill="none" stroke="black" d="M372,-252.216C372,-252.216 492,-252.216 492,-252.216 498,-252.216 504,-258.216 504,-264.216 504,-264.216 504,-334.216 504,-334.216 504,-340.216 498,-346.216 492,-346.216 492,-346.216 372,-346.216 372,-346.216 366,-346.216 360,-340.216 360,-334.216 360,-334.216 360,-264.216 360,-264.216 360,-258.216 366,-252.216 372,-252.216"/>
<text text-anchor="start" x="410.127" y="-332.916" font-family="Arial BoldMT" font-size="11.00">OldStop</text>
<polyline fill="none" stroke="black" points="360,-327.216 504,-327.216 "/>
<text text-anchor="start" x="367" y="-313.716" font-family="ArialMT" font-size="10.00">geometry </text>
<text text-anchor="start" x="411.463" y="-313.716" font-family="Arail ItalicMT" font-size="10.00" fill="#999999">spatial</text>
<text text-anchor="start" x="367" y="-300.716" font-family="ArialMT" font-size="10.00">name </text>
<text text-anchor="start" x="394.793" y="-300.716" font-family="Arail ItalicMT" font-size="10.00" fill="#999999">string</text>
<text text-anchor="start" x="367" y="-287.716" font-family="ArialMT" font-size="10.00">onestop_id </text>
<text text-anchor="start" x="418.709" y="-287.716" font-family="Arail ItalicMT" font-size="10.00" fill="#999999">string</text>
<text text-anchor="start" x="367" y="-274.716" font-family="ArialMT" font-size="10.00">tags </text>
<text text-anchor="start" x="388.68" y="-274.716" font-family="Arail ItalicMT" font-size="10.00" fill="#999999">hstore</text>
<text text-anchor="start" x="367" y="-261.716" font-family="ArialMT" font-size="10.00">version </text>
<text text-anchor="start" x="402.015" y="-261.716" font-family="Arail ItalicMT" font-size="10.00" fill="#999999">integer</text>
</g>
<!-- m_Changeset&#45;&gt;m_OldStop -->
<g id="edge2" class="edge"><title>m_Changeset&#45;&gt;m_OldStop</title>
<path fill="none" stroke="black" d="M144.074,-389.447C176.678,-389.09 215.823,-389.3 251,-391.216"/>
<path fill="none" stroke="black" d="M253,-391.216C294.482,-393.475 335.999,-373.605 368.49,-351.76"/>
<polygon fill="black" stroke="black" points="370.516,-354.189 376.126,-346.478 366.932,-349.008 370.516,-354.189"/>
</g>
<!-- m_Operator -->
<g id="node9" class="node"><title>m_Operator</title>
<path fill="none" stroke="black" d="M192,-466.216C192,-466.216 312,-466.216 312,-466.216 318,-466.216 324,-472.216 324,-478.216 324,-478.216 324,-548.216 324,-548.216 324,-554.216 318,-560.216 312,-560.216 312,-560.216 192,-560.216 192,-560.216 186,-560.216 180,-554.216 180,-548.216 180,-548.216 180,-478.216 180,-478.216 180,-472.216 186,-466.216 192,-466.216"/>
<text text-anchor="start" x="228.295" y="-546.916" font-family="Arial BoldMT" font-size="11.00">Operator</text>
<polyline fill="none" stroke="black" points="180,-541.216 324,-541.216 "/>
<text text-anchor="start" x="187" y="-527.716" font-family="ArialMT" font-size="10.00">geometry </text>
<text text-anchor="start" x="231.463" y="-527.716" font-family="Arail ItalicMT" font-size="10.00" fill="#999999">spatial</text>
<text text-anchor="start" x="187" y="-514.716" font-family="ArialMT" font-size="10.00">name </text>
<text text-anchor="start" x="214.793" y="-514.716" font-family="Arail ItalicMT" font-size="10.00" fill="#999999">string</text>
<text text-anchor="start" x="187" y="-501.716" font-family="ArialMT" font-size="10.00">onestop_id </text>
<text text-anchor="start" x="238.709" y="-501.716" font-family="Arail ItalicMT" font-size="10.00" fill="#999999">string ∗</text>
<text text-anchor="start" x="187" y="-488.716" font-family="ArialMT" font-size="10.00">tags </text>
<text text-anchor="start" x="208.68" y="-488.716" font-family="Arail ItalicMT" font-size="10.00" fill="#999999">hstore</text>
<text text-anchor="start" x="187" y="-475.716" font-family="ArialMT" font-size="10.00">version </text>
<text text-anchor="start" x="222.015" y="-475.716" font-family="Arail ItalicMT" font-size="10.00" fill="#999999">integer</text>
</g>
<!-- m_Changeset&#45;&gt;m_Operator -->
<g id="edge3" class="edge"><title>m_Changeset&#45;&gt;m_Operator</title>
<path fill="none" stroke="black" d="M132.271,-431.84C145.754,-441.081 160.264,-451.026 174.354,-460.683"/>
<polygon fill="black" stroke="black" points="172.924,-463.522 182.129,-466.012 176.486,-458.325 172.924,-463.522"/>
</g>
<!-- m_OperatorServingStop -->
<g id="node10" class="node"><title>m_OperatorServingStop</title>
<path fill="none" stroke="black" d="M552,-350.716C552,-350.716 672,-350.716 672,-350.716 678,-350.716 684,-356.716 684,-362.716 684,-362.716 684,-393.716 684,-393.716 684,-399.716 678,-405.716 672,-405.716 672,-405.716 552,-405.716 552,-405.716 546,-405.716 540,-399.716 540,-393.716 540,-393.716 540,-362.716 540,-362.716 540,-356.716 546,-350.716 552,-350.716"/>
<text text-anchor="start" x="558.333" y="-392.416" font-family="Arial BoldMT" font-size="11.00">OperatorServingStop</text>
<polyline fill="none" stroke="black" points="540,-386.716 684,-386.716 "/>
<text text-anchor="start" x="547" y="-373.716" font-family="ArialMT" font-size="10.00">tags </text>
<text text-anchor="start" x="568.68" y="-373.716" font-family="Arail ItalicMT" font-size="10.00" fill="#999999">hstore</text>
<text text-anchor="start" x="547" y="-360.716" font-family="ArialMT" font-size="10.00">version </text>
<text text-anchor="start" x="582.015" y="-360.716" font-family="Arail ItalicMT" font-size="10.00" fill="#999999">integer</text>
</g>
<!-- m_Changeset&#45;&gt;m_OperatorServingStop -->
<g id="edge7" class="edge"><title>m_Changeset&#45;&gt;m_OperatorServingStop</title>
<path fill="none" stroke="black" d="M253,-391.216C331.994,-395.518 352.202,-384.18 431,-391.216"/>
</g>
<!-- m_Route -->
<g id="node11" class="node"><title>m_Route</title>
<path fill="none" stroke="black" d="M372,-789.716C372,-789.716 492,-789.716 492,-789.716 498,-789.716 504,-795.716 504,-801.716 504,-801.716 504,-858.716 504,-858.716 504,-864.716 498,-870.716 492,-870.716 492,-870.716 372,-870.716 372,-870.716 366,-870.716 360,-864.716 360,-858.716 360,-858.716 360,-801.716 360,-801.716 360,-795.716 366,-789.716 372,-789.716"/>
<text text-anchor="start" x="415.323" y="-857.416" font-family="Arial BoldMT" font-size="11.00">Route</text>
<polyline fill="none" stroke="black" points="360,-851.716 504,-851.716 "/>
<text text-anchor="start" x="367" y="-838.716" font-family="ArialMT" font-size="10.00">name </text>
<text text-anchor="start" x="394.793" y="-838.716" font-family="Arail ItalicMT" font-size="10.00" fill="#999999">string</text>
<text text-anchor="start" x="367" y="-825.716" font-family="ArialMT" font-size="10.00">onestop_id </text>
<text text-anchor="start" x="418.709" y="-825.716" font-family="Arail ItalicMT" font-size="10.00" fill="#999999">string ∗</text>
<text text-anchor="start" x="367" y="-812.716" font-family="ArialMT" font-size="10.00">tags </text>
<text text-anchor="start" x="388.68" y="-812.716" font-family="Arail ItalicMT" font-size="10.00" fill="#999999">hstore</text>
<text text-anchor="start" x="367" y="-799.716" font-family="ArialMT" font-size="10.00">version </text>
<text text-anchor="start" x="402.015" y="-799.716" font-family="Arail ItalicMT" font-size="10.00" fill="#999999">integer</text>
</g>
<!-- m_Changeset&#45;&gt;m_Route -->
<g id="edge5" class="edge"><title>m_Changeset&#45;&gt;m_Route</title>
<path fill="none" stroke="black" d="M253,-830.216C281.15,-849.098 317.855,-851.799 350.617,-848.719"/>
<polygon fill="black" stroke="black" points="351.145,-851.83 359.742,-847.706 350.449,-845.569 351.145,-851.83"/>
</g>
<!-- m_RouteServingStop -->
<g id="node12" class="node"><title>m_RouteServingStop</title>
<path fill="none" stroke="black" d="M732,-219.716C732,-219.716 852,-219.716 852,-219.716 858,-219.716 864,-225.716 864,-231.716 864,-231.716 864,-262.716 864,-262.716 864,-268.716 858,-274.716 852,-274.716 852,-274.716 732,-274.716 732,-274.716 726,-274.716 720,-268.716 720,-262.716 720,-262.716 720,-231.716 720,-231.716 720,-225.716 726,-219.716 732,-219.716"/>
<text text-anchor="start" x="745.361" y="-261.416" font-family="Arial BoldMT" font-size="11.00">RouteServingStop</text>
<polyline fill="none" stroke="black" points="720,-255.716 864,-255.716 "/>
<text text-anchor="start" x="727" y="-242.716" font-family="ArialMT" font-size="10.00">tags </text>
<text text-anchor="start" x="748.68" y="-242.716" font-family="Arail ItalicMT" font-size="10.00" fill="#999999">hstore</text>
<text text-anchor="start" x="727" y="-229.716" font-family="ArialMT" font-size="10.00">version </text>
<text text-anchor="start" x="762.015" y="-229.716" font-family="Arail ItalicMT" font-size="10.00" fill="#999999">integer</text>
</g>
<!-- m_Changeset&#45;&gt;m_RouteServingStop -->
<g id="edge9" class="edge"><title>m_Changeset&#45;&gt;m_RouteServingStop</title>
<path fill="none" stroke="black" d="M613,-129.216C670.104,-139.786 671.358,-172.489 720,-204.216 725.394,-207.734 731.068,-211.334 736.76,-214.88"/>
<polygon fill="black" stroke="black" points="735.198,-217.617 744.509,-219.67 738.51,-212.258 735.198,-217.617"/>
</g>
<!-- m_Stop -->
<g id="node13" class="node"><title>m_Stop</title>
<path fill="none" stroke="black" d="M192,-252.216C192,-252.216 312,-252.216 312,-252.216 318,-252.216 324,-258.216 324,-264.216 324,-264.216 324,-334.216 324,-334.216 324,-340.216 318,-346.216 312,-346.216 312,-346.216 192,-346.216 192,-346.216 186,-346.216 180,-340.216 180,-334.216 180,-334.216 180,-264.216 180,-264.216 180,-258.216 186,-252.216 192,-252.216"/>
<text text-anchor="start" x="238.686" y="-332.916" font-family="Arial BoldMT" font-size="11.00">Stop</text>
<polyline fill="none" stroke="black" points="180,-327.216 324,-327.216 "/>
<text text-anchor="start" x="187" y="-313.716" font-family="ArialMT" font-size="10.00">geometry </text>
<text text-anchor="start" x="231.463" y="-313.716" font-family="Arail ItalicMT" font-size="10.00" fill="#999999">spatial</text>
<text text-anchor="start" x="187" y="-300.716" font-family="ArialMT" font-size="10.00">name </text>
<text text-anchor="start" x="214.793" y="-300.716" font-family="Arail ItalicMT" font-size="10.00" fill="#999999">string</text>
<text text-anchor="start" x="187" y="-287.716" font-family="ArialMT" font-size="10.00">onestop_id </text>
<text text-anchor="start" x="238.709" y="-287.716" font-family="Arail ItalicMT" font-size="10.00" fill="#999999">string ∗</text>
<text text-anchor="start" x="187" y="-274.716" font-family="ArialMT" font-size="10.00">tags </text>
<text text-anchor="start" x="208.68" y="-274.716" font-family="Arail ItalicMT" font-size="10.00" fill="#999999">hstore</text>
<text text-anchor="start" x="187" y="-261.716" font-family="ArialMT" font-size="10.00">version </text>
<text text-anchor="start" x="222.015" y="-261.716" font-family="Arail ItalicMT" font-size="10.00" fill="#999999">integer</text>
</g>
<!-- m_Changeset&#45;&gt;m_Stop -->
<g id="edge1" class="edge"><title>m_Changeset&#45;&gt;m_Stop</title>
<path fill="none" stroke="black" d="M144.118,-354.458C153.255,-349.735 162.655,-344.877 171.91,-340.094"/>
<polygon fill="black" stroke="black" points="173.446,-342.845 179.995,-335.915 170.554,-337.249 173.446,-342.845"/>
</g>
<!-- m_Identifier&#45;&gt;m_OldIdentifier -->
<g id="edge13" class="edge"><title>m_Identifier&#45;&gt;m_OldIdentifier</title>
<path fill="none" stroke="black" d="M855.256,-615.644C870.025,-606.019 885.878,-595.688 900.968,-585.855"/>
<polygon fill="black" stroke="black" points="902.959,-588.317 908.779,-580.764 899.519,-583.039 902.959,-588.317"/>
</g>
<!-- m_OldOperator&#45;&gt;m_Identifier -->
<g id="edge14" class="edge"><title>m_OldOperator&#45;&gt;m_Identifier</title>
<path fill="none" stroke="black" d="M504.157,-564.875C563.947,-583.914 649.328,-611.102 711.381,-630.862"/>
<polygon fill="black" stroke="black" points="710.446,-633.87 719.977,-633.599 712.357,-627.867 710.446,-633.87"/>
</g>
<!-- m_OldOperator&#45;&gt;m_OldIdentifier -->
<g id="edge22" class="edge"><title>m_OldOperator&#45;&gt;m_OldIdentifier</title>
<path fill="none" stroke="black" d="M793,-540.216C824.546,-535.299 859.62,-534.351 890.237,-534.969"/>
<polygon fill="black" stroke="black" points="890.509,-538.127 899.587,-535.208 890.67,-531.829 890.509,-538.127"/>
<path fill="none" stroke="black" d="M613,-509.216C687.695,-479.735 711.656,-552.581 791,-540.216"/>
</g>
<!-- m_OldOperator&#45;&gt;m_OperatorServingStop -->
<g id="edge33" class="edge"><title>m_OldOperator&#45;&gt;m_OperatorServingStop</title>
<path fill="none" stroke="black" d="M484.485,-494.78C513.232,-468.294 548.371,-435.918 574.315,-412.015"/>
<polygon fill="black" stroke="black" points="576.554,-414.235 581.039,-405.82 572.286,-409.602 576.554,-414.235"/>
</g>
<!-- m_OldOperator&#45;&gt;m_Route -->
<g id="edge36" class="edge"><title>m_OldOperator&#45;&gt;m_Route</title>
<path fill="none" stroke="black" stroke-dasharray="1,5" d="M432,-589.466C432,-652.957 432,-716.448 432,-779.939"/>
<polygon fill="black" stroke="black" points="428.85,-780.307 432,-789.307 435.15,-780.307 428.85,-780.307"/>
</g>
<!-- m_OldOperator&#45;&gt;m_RouteServingStop -->
<g id="edge35" class="edge"><title>m_OldOperator&#45;&gt;m_RouteServingStop</title>
<path fill="none" stroke="black" d="M613,-509.216C646.099,-496.152 659.302,-497.832 684,-472.216 736.743,-417.512 767.486,-331.929 781.586,-283.61"/>
<polygon fill="black" stroke="black" points="784.673,-284.269 784.106,-274.75 778.614,-282.545 784.673,-284.269"/>
<path fill="none" stroke="black" d="M504.052,-535.411C537.361,-530.63 577.088,-522.6 611,-509.216"/>
</g>
<!-- m_OldRoute&#45;&gt;m_Identifier -->
<g id="edge15" class="edge"><title>m_OldRoute&#45;&gt;m_Identifier</title>
<path fill="none" stroke="black" d="M665.483,-848.517C671.936,-841.204 678.269,-833.653 684,-826.216 713.955,-787.345 743.309,-739.842 763.671,-704.941"/>
<polygon fill="black" stroke="black" points="766.601,-706.167 768.391,-696.801 761.151,-703.007 766.601,-706.167"/>
</g>
<!-- m_OldRoute&#45;&gt;m_OldIdentifier -->
<g id="edge23" class="edge"><title>m_OldRoute&#45;&gt;m_OldIdentifier</title>
<path fill="none" stroke="black" d="M793,-1000.22C943.78,-924.379 967.897,-692.647 971.013,-590.023"/>
<polygon fill="black" stroke="black" points="974.168,-589.875 971.247,-580.798 967.87,-589.716 974.168,-589.875"/>
<path fill="none" stroke="black" d="M660.085,-955.891C695.674,-989.647 745.933,-1022.88 791,-1000.22"/>
</g>
<!-- m_OldRoute&#45;&gt;m_RouteServingStop -->
<g id="edge49" class="edge"><title>m_OldRoute&#45;&gt;m_RouteServingStop</title>
<path fill="none" stroke="black" d="M670.565,-848.357C675.782,-841.35 680.432,-833.916 684,-826.216 741.939,-701.165 694.473,-653.652 720,-518.216 736.019,-433.225 764.041,-335.55 779.662,-283.82"/>
<polygon fill="black" stroke="black" points="782.736,-284.538 782.336,-275.011 776.707,-282.708 782.736,-284.538"/>
</g>
<!-- m_OldStop&#45;&gt;m_Identifier -->
<g id="edge16" class="edge"><title>m_OldStop&#45;&gt;m_Identifier</title>
<path fill="none" stroke="black" d="M613,-306.216C644.909,-318.202 662.829,-308.501 684,-335.216 747.446,-415.273 680.025,-468.213 720,-562.216 726.884,-578.403 737.156,-594.323 747.763,-608.329"/>
<polygon fill="black" stroke="black" points="745.309,-610.305 753.324,-615.47 750.28,-606.434 745.309,-610.305"/>
</g>
<!-- m_OldStop&#45;&gt;m_OldIdentifier -->
<g id="edge24" class="edge"><title>m_OldStop&#45;&gt;m_OldIdentifier</title>
<path fill="none" stroke="black" d="M498.324,-252.049C511.889,-242.821 526.245,-233.459 540,-225.216 601.722,-188.228 631.106,-200 684,-151.216 706.302,-130.646 696.825,-112.797 720,-93.2156 746.037,-71.2166 760.143,-49.7347 791,-64.2156"/>
</g>
<!-- m_OldStop&#45;&gt;m_Operator -->
<g id="edge61" class="edge"><title>m_OldStop&#45;&gt;m_Operator</title>
<path fill="none" stroke="black" stroke-dasharray="1,5" d="M381.105,-346.469C373.835,-353.904 366.588,-361.64 360,-369.216 335.434,-397.466 310.348,-430.933 290.646,-458.49"/>
<polygon fill="black" stroke="black" points="287.885,-456.937 285.237,-466.097 293.019,-460.588 287.885,-456.937"/>
</g>
<!-- m_OldStop&#45;&gt;m_OperatorServingStop -->
<g id="edge60" class="edge"><title>m_OldStop&#45;&gt;m_OperatorServingStop</title>
<path fill="none" stroke="black" d="M504.118,-330.779C516.156,-336.122 528.649,-341.666 540.666,-347"/>
<polygon fill="black" stroke="black" points="539.395,-349.882 548.899,-350.654 541.951,-344.124 539.395,-349.882"/>
</g>
<!-- m_OldStop&#45;&gt;m_Route -->
<g id="edge63" class="edge"><title>m_OldStop&#45;&gt;m_Route</title>
<path fill="none" stroke="black" stroke-dasharray="1,5" d="M392.931,-346.376C373.511,-372.908 352.08,-407.671 342,-442.716 307.347,-563.187 367.074,-707.62 404.769,-781.478"/>
<polygon fill="black" stroke="black" points="402.088,-783.151 409.022,-789.697 407.684,-780.256 402.088,-783.151"/>
</g>
<!-- m_OldStop&#45;&gt;m_RouteServingStop -->
<g id="edge62" class="edge"><title>m_OldStop&#45;&gt;m_RouteServingStop</title>
<path fill="none" stroke="black" d="M504.347,-291.888C537.721,-290.98 577.416,-293.6 611,-306.216"/>
<path fill="none" stroke="black" d="M613,-306.216C657.484,-322.926 709.107,-301.401 745.267,-279.809"/>
<polygon fill="black" stroke="black" points="747.185,-282.328 753.196,-274.926 743.881,-276.964 747.185,-282.328"/>
</g>
<!-- m_Operator&#45;&gt;m_Identifier -->
<g id="edge17" class="edge"><title>m_Operator&#45;&gt;m_Identifier</title>
<path fill="none" stroke="black" d="M613,-686.216C644.679,-678.886 679.92,-672.57 710.63,-667.65"/>
<polygon fill="black" stroke="black" points="711.187,-670.751 719.584,-666.234 710.203,-664.528 711.187,-670.751"/>
</g>
<!-- m_Operator&#45;&gt;m_OldIdentifier -->
<g id="edge25" class="edge"><title>m_Operator&#45;&gt;m_OldIdentifier</title>
<path fill="none" stroke="black" d="M613,-686.216C712.686,-663.152 689.902,-555.971 791,-540.216"/>
<path fill="none" stroke="black" d="M300.228,-560.34C366.392,-620.512 491.962,-713.756 611,-686.216"/>
</g>
<!-- m_Operator&#45;&gt;m_OldOperator -->
<g id="edge28" class="edge"><title>m_Operator&#45;&gt;m_OldOperator</title>
<path fill="none" stroke="black" d="M324.118,-524.802C332.978,-526.246 342.085,-527.729 351.068,-529.193"/>
<polygon fill="black" stroke="black" points="350.606,-532.309 359.995,-530.647 351.619,-526.091 350.606,-532.309"/>
</g>
<!-- m_Operator&#45;&gt;m_OldOperator -->
<g id="edge32" class="edge"><title>m_Operator&#45;&gt;m_OldOperator</title>
<path fill="none" stroke="black" d="M333.047,-526.257C338.942,-527.217 344.891,-528.187 350.787,-529.147"/>
<polygon fill="black" stroke="black" points="333.507,-523.14 324.118,-524.802 332.494,-529.358 333.507,-523.14"/>
<polygon fill="black" stroke="black" points="350.606,-532.309 359.995,-530.647 351.619,-526.091 350.606,-532.309"/>
</g>
<!-- m_Operator&#45;&gt;m_OldOperatorServingStop -->
<g id="edge42" class="edge"><title>m_Operator&#45;&gt;m_OldOperatorServingStop</title>
<path fill="none" stroke="black" d="M433,-450.216C541.368,-420.57 602.743,-497.803 684,-420.216 754.39,-353.005 670.093,-287.77 720,-204.216 721.519,-201.672 723.204,-199.203 725.021,-196.812"/>
<polygon fill="black" stroke="black" points="727.47,-198.794 730.838,-189.874 722.642,-194.747 727.47,-198.794"/>
</g>
<!-- m_Operator&#45;&gt;m_OperatorServingStop -->
<g id="edge29" class="edge"><title>m_Operator&#45;&gt;m_OperatorServingStop</title>
<path fill="none" stroke="black" d="M324.127,-485.354C356.402,-473.411 395.27,-459.99 431,-450.216"/>
<path fill="none" stroke="black" d="M433,-450.216C470.781,-439.88 511.378,-423.864 544.248,-409.56"/>
<polygon fill="black" stroke="black" points="545.896,-412.276 552.868,-405.771 543.361,-406.509 545.896,-412.276"/>
</g>
<!-- m_Operator&#45;&gt;m_Route -->
<g id="edge46" class="edge"><title>m_Operator&#45;&gt;m_Route</title>
<path fill="none" stroke="black" d="M278.398,-560.287C299.873,-599.897 331.593,-657.957 360,-708.216 373.747,-732.537 389.33,-759.39 402.388,-781.697"/>
<polygon fill="black" stroke="black" points="399.808,-783.524 407.076,-789.696 405.243,-780.339 399.808,-783.524"/>
</g>
<!-- m_Operator&#45;&gt;m_Stop -->
<g id="edge30" class="edge"><title>m_Operator&#45;&gt;m_Stop</title>
<path fill="none" stroke="black" stroke-dasharray="1,5" d="M252,-465.986C252,-429.252 252,-392.519 252,-355.785"/>
<polygon fill="black" stroke="black" points="255.15,-355.446 252,-346.446 248.85,-355.446 255.15,-355.446"/>
</g>
<!-- m_OperatorServingStop&#45;&gt;m_OldOperatorServingStop -->
<g id="edge37" class="edge"><title>m_OperatorServingStop&#45;&gt;m_OldOperatorServingStop</title>
<path fill="none" stroke="black" d="M661.633,-350.708C670.013,-344.218 677.957,-336.683 684,-328.216 717.339,-281.506 687.733,-251.672 720,-204.216 721.71,-201.701 723.571,-199.251 725.55,-196.869"/>
<polygon fill="black" stroke="black" points="728.118,-198.726 731.812,-189.936 723.442,-194.504 728.118,-198.726"/>
</g>
<!-- m_Route&#45;&gt;m_Identifier -->
<g id="edge18" class="edge"><title>m_Route&#45;&gt;m_Identifier</title>
<path fill="none" stroke="black" d="M613,-804.216C670.607,-788.474 721.31,-741.143 753.714,-704.198"/>
<polygon fill="black" stroke="black" points="756.462,-705.835 759.948,-696.96 751.688,-701.724 756.462,-705.835"/>
<path fill="none" stroke="black" d="M504.412,-823.806C537.259,-819.837 576.506,-813.642 611,-804.216"/>
</g>
<!-- m_Route&#45;&gt;m_OldIdentifier -->
<g id="edge26" class="edge"><title>m_Route&#45;&gt;m_OldIdentifier</title>
<path fill="none" stroke="black" d="M452.249,-870.973C470.107,-903.895 499.96,-948.379 540,-971.216 637.547,-1026.85 690.677,-1050.67 791,-1000.22"/>
</g>
<!-- m_Route&#45;&gt;m_OldRoute -->
<g id="edge43" class="edge"><title>m_Route&#45;&gt;m_OldRoute</title>
<path fill="none" stroke="black" d="M504.118,-858.982C513.163,-862.641 522.465,-866.404 531.629,-870.111"/>
<polygon fill="black" stroke="black" points="530.471,-873.04 539.995,-873.495 532.833,-867.2 530.471,-873.04"/>
</g>
<!-- m_Route&#45;&gt;m_OldRoute -->
<g id="edge48" class="edge"><title>m_Route&#45;&gt;m_OldRoute</title>
<path fill="none" stroke="black" d="M512.485,-862.367C518.787,-864.916 525.152,-867.491 531.454,-870.04"/>
<polygon fill="black" stroke="black" points="513.642,-859.437 504.118,-858.982 511.28,-865.277 513.642,-859.437"/>
<polygon fill="black" stroke="black" points="530.471,-873.04 539.995,-873.495 532.833,-867.2 530.471,-873.04"/>
</g>
<!-- m_Route&#45;&gt;m_OldRouteServingStop -->
<g id="edge56" class="edge"><title>m_Route&#45;&gt;m_OldRouteServingStop</title>
<path fill="none" stroke="black" d="M613,-804.216C727.759,-772.856 788.584,-803.224 864,-711.216 928.756,-632.214 882.061,-584.778 900,-484.216 919.702,-373.774 946.112,-244.859 960.528,-175.849"/>
<polygon fill="black" stroke="black" points="963.636,-176.377 962.396,-166.923 957.469,-175.087 963.636,-176.377"/>
</g>
<!-- m_Route&#45;&gt;m_RouteServingStop -->
<g id="edge44" class="edge"><title>m_Route&#45;&gt;m_RouteServingStop</title>
<path fill="none" stroke="black" d="M455.227,-789.697C475.244,-754.821 506.582,-703.985 540,-664.216 596.047,-597.515 635.334,-603.477 684,-531.216 737.809,-451.319 769.333,-340.696 782.96,-283.981"/>
<polygon fill="black" stroke="black" points="786.072,-284.507 785.07,-275.025 779.94,-283.063 786.072,-284.507"/>
</g>
<!-- m_Route&#45;&gt;m_Stop -->
<g id="edge45" class="edge"><title>m_Route&#45;&gt;m_Stop</title>
<path fill="none" stroke="black" stroke-dasharray="1,5" d="M416.139,-789.496C400.257,-744.64 375.305,-670.115 360,-604.216 336.096,-501.292 372.065,-463.313 324,-369.216 321.249,-363.83 317.926,-358.61 314.24,-353.612"/>
<polygon fill="black" stroke="black" points="316.645,-351.575 308.602,-346.454 311.696,-355.473 316.645,-351.575"/>
</g>
<!-- m_RouteServingStop&#45;&gt;m_OldRouteServingStop -->
<g id="edge51" class="edge"><title>m_RouteServingStop&#45;&gt;m_OldRouteServingStop</title>
<path fill="none" stroke="black" d="M839.95,-219.557C848.046,-214.568 856.322,-209.326 864,-204.216 878.993,-194.237 894.83,-183.061 909.591,-172.355"/>
<polygon fill="black" stroke="black" points="911.784,-174.655 917.202,-166.808 908.073,-169.563 911.784,-174.655"/>
</g>
<!-- m_Stop&#45;&gt;m_Identifier -->
<g id="edge19" class="edge"><title>m_Stop&#45;&gt;m_Identifier</title>
<path fill="none" stroke="black" d="M613,-247.216C646.815,-258.294 663.628,-255.041 684,-284.216 755.33,-386.363 672.883,-446.882 720,-562.216 726.652,-578.499 736.849,-594.451 747.457,-608.457"/>
<polygon fill="black" stroke="black" points="745.006,-610.436 753.025,-615.595 749.973,-606.561 745.006,-610.436"/>
</g>
<!-- m_Stop&#45;&gt;m_OldIdentifier -->
<g id="edge27" class="edge"><title>m_Stop&#45;&gt;m_OldIdentifier</title>
<path fill="none" stroke="black" d="M433,-67.2156C500.668,-26.2114 532.089,-58.438 611,-64.2156"/>
</g>
<!-- m_Stop&#45;&gt;m_OldOperatorServingStop -->
<g id="edge41" class="edge"><title>m_Stop&#45;&gt;m_OldOperatorServingStop</title>
<path fill="none" stroke="black" d="M322.36,-252.166C334.449,-246.002 347.249,-240.643 360,-237.216 467.817,-208.236 506.935,-206.781 611,-247.216"/>
<path fill="none" stroke="black" d="M613,-247.216C636.719,-254.986 688.601,-224.224 730.265,-195.153"/>
<polygon fill="black" stroke="black" points="732.112,-197.705 737.651,-189.944 728.481,-192.557 732.112,-197.705"/>
</g>
<!-- m_Stop&#45;&gt;m_OldRouteServingStop -->
<g id="edge55" class="edge"><title>m_Stop&#45;&gt;m_OldRouteServingStop</title>
<path fill="none" stroke="black" d="M275.529,-251.97C303.874,-198.03 357.841,-111.547 431,-67.2156"/>
<path fill="none" stroke="black" d="M433,-67.2156C468.823,-45.5085 569.281,-8.95173 611,-5.2156"/>
</g>
<!-- m_Stop&#45;&gt;m_OldStop -->
<g id="edge57" class="edge"><title>m_Stop&#45;&gt;m_OldStop</title>
<path fill="none" stroke="black" d="M324.118,-299.216C332.886,-299.216 341.896,-299.216 350.787,-299.216"/>
<polygon fill="black" stroke="black" points="350.995,-302.366 359.995,-299.216 350.995,-296.066 350.995,-302.366"/>
</g>
<!-- m_Stop&#45;&gt;m_OperatorServingStop -->
<g id="edge38" class="edge"><title>m_Stop&#45;&gt;m_OperatorServingStop</title>
<path fill="none" stroke="black" d="M315.129,-346.379C347.712,-367.056 389.422,-387.503 431,-391.216"/>
<path fill="none" stroke="black" d="M433,-391.216C464.885,-394.063 500.024,-392.494 530.598,-389.611"/>
<polygon fill="black" stroke="black" points="531.29,-392.708 539.932,-388.677 530.663,-386.439 531.29,-392.708"/>
</g>
<!-- m_Stop&#45;&gt;m_RouteServingStop -->
<g id="edge52" class="edge"><title>m_Stop&#45;&gt;m_RouteServingStop</title>
<path fill="none" stroke="black" d="M613,-247.216C643.543,-259.083 679.321,-261.12 710.758,-259.433"/>
<polygon fill="black" stroke="black" points="711.158,-262.564 719.932,-258.831 710.745,-256.277 711.158,-262.564"/>
</g>
</g>
</svg>
