<?xml version="1.0" encoding="UTF-8" standalone="no"?>
<!DOCTYPE svg PUBLIC "-//W3C//DTD SVG 1.1//EN"
 "http://www.w3.org/Graphics/SVG/1.1/DTD/svg11.dtd">
<!-- Generated by graphviz version 2.38.0 (20140413.2041)
 -->
<!-- Title: Onestop Pages: 1 -->
<svg width="382pt" height="193pt"
 viewBox="0.00 0.00 381.60 192.55" xmlns="http://www.w3.org/2000/svg" xmlns:xlink="http://www.w3.org/1999/xlink">
<g id="graph0" class="graph" transform="scale(1 1) rotate(0) translate(28.8 163.749)">
<title>Onestop</title>
<polygon fill="white" stroke="none" points="-28.8,28.8 -28.8,-163.749 352.8,-163.749 352.8,28.8 -28.8,28.8"/>
<text text-anchor="middle" x="162" y="-120.549" font-family="Arial Bold" font-size="13.00">Onestop domain model</text>
<!-- m_Stop -->
<g id="node1" class="node"><title>m_Stop</title>
<path fill="none" stroke="black" d="M12,-0.5C12,-0.5 132,-0.5 132,-0.5 138,-0.5 144,-6.5 144,-12.5 144,-12.5 144,-84.5 144,-84.5 144,-90.5 138,-96.5 132,-96.5 132,-96.5 12,-96.5 12,-96.5 6,-96.5 0,-90.5 0,-84.5 0,-84.5 0,-12.5 0,-12.5 0,-6.5 6,-0.5 12,-0.5"/>
<text text-anchor="start" x="57.7808" y="-83.7" font-family="Arial Bold" font-size="11.00">Stop</text>
<polyline fill="none" stroke="black" points="0,-76.5 144,-76.5 "/>
<text text-anchor="start" x="7" y="-63.5" font-family="Arial" font-size="10.00">codes </text>
<text text-anchor="start" x="36.4629" y="-63.5" font-family="Arial Italic" font-size="10.00" fill="#999999">string</text>
<text text-anchor="start" x="7" y="-50.5" font-family="Arial" font-size="10.00">geometry </text>
<text text-anchor="start" x="51.4629" y="-50.5" font-family="Arial Italic" font-size="10.00" fill="#999999">spatial</text>
<text text-anchor="start" x="7" y="-37.5" font-family="Arial" font-size="10.00">names </text>
<text text-anchor="start" x="39.793" y="-37.5" font-family="Arial Italic" font-size="10.00" fill="#999999">string</text>
<text text-anchor="start" x="7" y="-24.5" font-family="Arial" font-size="10.00">onestop_id </text>
<text text-anchor="start" x="58.709" y="-24.5" font-family="Arial Italic" font-size="10.00" fill="#999999">string ∗</text>
<text text-anchor="start" x="7" y="-10.5" font-family="Arial" font-size="10.00">tags </text>
<text text-anchor="start" x="28.6797" y="-10.5" font-family="Arial Italic" font-size="10.00" fill="#999999">hstore</text>
</g>
<!-- m_StopIdentifier -->
<g id="node2" class="node"><title>m_StopIdentifier</title>
<path fill="none" stroke="black" d="M192,-20C192,-20 312,-20 312,-20 318,-20 324,-26 324,-32 324,-32 324,-65 324,-65 324,-71 318,-77 312,-77 312,-77 192,-77 192,-77 186,-77 180,-71 180,-65 180,-65 180,-32 180,-32 180,-26 186,-20 192,-20"/>
<text text-anchor="start" x="214.556" y="-64.2" font-family="Arial Bold" font-size="11.00">StopIdentifier</text>
<polyline fill="none" stroke="black" points="180,-57 324,-57 "/>
<text text-anchor="start" x="187" y="-43.5" font-family="Arial" font-size="10.00">identifier </text>
<text text-anchor="start" x="227.576" y="-43.5" font-family="Arial Italic" font-size="10.00" fill="#999999">string ∗</text>
<text text-anchor="start" x="187" y="-29.5" font-family="Arial" font-size="10.00">tags </text>
<text text-anchor="start" x="208.68" y="-29.5" font-family="Arial Italic" font-size="10.00" fill="#999999">hstore</text>
</g>
<!-- m_Stop&#45;&gt;m_StopIdentifier -->
<g id="edge1" class="edge"><title>m_Stop&#45;&gt;m_StopIdentifier</title>
<path fill="none" stroke="black" d="M144.118,-48.5C152.886,-48.5 161.896,-48.5 170.787,-48.5"/>
<polygon fill="black" stroke="black" points="170.995,-51.6501 179.995,-48.5 170.995,-45.3501 170.995,-51.6501"/>
</g>
</g>
</svg>
