<?xml version="1.0" encoding="UTF-8" standalone="no"?>
<!DOCTYPE svg PUBLIC "-//W3C//DTD SVG 1.1//EN"
 "http://www.w3.org/Graphics/SVG/1.1/DTD/svg11.dtd">
<!-- Generated by graphviz version 2.38.0 (20140413.2041)
 -->
<!-- Title: Onestop Pages: 1 -->
<svg width="562pt" height="509pt"
 viewBox="0.00 0.00 561.60 509.29" xmlns="http://www.w3.org/2000/svg" xmlns:xlink="http://www.w3.org/1999/xlink">
<g id="graph0" class="graph" transform="scale(1 1) rotate(0) translate(28.8 480.491)">
<title>Onestop</title>
<polygon fill="white" stroke="none" points="-28.8,28.8 -28.8,-480.491 532.8,-480.491 532.8,28.8 -28.8,28.8"/>
<text text-anchor="middle" x="252" y="-437.291" font-family="Arial Bold" font-size="13.00">Onestop domain model</text>
<!-- m_Feed -->
<g id="node1" class="node"><title>m_Feed</title>
<path fill="none" stroke="black" d="M12,-265.5C12,-265.5 132,-265.5 132,-265.5 138,-265.5 144,-271.5 144,-277.5 144,-277.5 144,-336.5 144,-336.5 144,-342.5 138,-348.5 132,-348.5 132,-348.5 12,-348.5 12,-348.5 6,-348.5 0,-342.5 0,-336.5 0,-336.5 0,-277.5 0,-277.5 0,-271.5 6,-265.5 12,-265.5"/>
<text text-anchor="start" x="57.1631" y="-335.7" font-family="Arial Bold" font-size="11.00">Feed</text>
<polyline fill="none" stroke="black" points="0,-328.5 144,-328.5 "/>
<text text-anchor="start" x="7" y="-315" font-family="Arial" font-size="10.00">feed_format </text>
<text text-anchor="start" x="63.1426" y="-315" font-family="Arial Italic" font-size="10.00" fill="#999999">string</text>
<text text-anchor="start" x="7" y="-302" font-family="Arial" font-size="10.00">last_fetched_at </text>
<text text-anchor="start" x="77.6055" y="-302" font-family="Arial Italic" font-size="10.00" fill="#999999">datetime</text>
<text text-anchor="start" x="7" y="-289" font-family="Arial" font-size="10.00">last_imported_at </text>
<text text-anchor="start" x="83.709" y="-289" font-family="Arial Italic" font-size="10.00" fill="#999999">datetime</text>
<text text-anchor="start" x="7" y="-276" font-family="Arial" font-size="10.00">url </text>
<text text-anchor="start" x="20.8916" y="-276" font-family="Arial Italic" font-size="10.00" fill="#999999">string ∗</text>
</g>
<!-- m_FeedImport -->
<g id="node2" class="node"><title>m_FeedImport</title>
<path fill="none" stroke="black" d="M192,-261.5C192,-261.5 312,-261.5 312,-261.5 318,-261.5 324,-267.5 324,-273.5 324,-273.5 324,-370.5 324,-370.5 324,-376.5 318,-382.5 312,-382.5 312,-382.5 192,-382.5 192,-382.5 186,-382.5 180,-376.5 180,-370.5 180,-370.5 180,-273.5 180,-273.5 180,-267.5 186,-261.5 192,-261.5"/>
<text text-anchor="start" x="220.053" y="-369.7" font-family="Arial Bold" font-size="11.00">FeedImport</text>
<polyline fill="none" stroke="black" points="180,-362.5 324,-362.5 "/>
<text text-anchor="start" x="187" y="-349" font-family="Arial" font-size="10.00">file_content_type </text>
<text text-anchor="start" x="265.389" y="-349" font-family="Arial Italic" font-size="10.00" fill="#999999">string</text>
<text text-anchor="start" x="187" y="-336" font-family="Arial" font-size="10.00">file_file_name </text>
<text text-anchor="start" x="251.482" y="-336" font-family="Arial Italic" font-size="10.00" fill="#999999">string</text>
<text text-anchor="start" x="187" y="-323" font-family="Arial" font-size="10.00">file_file_size </text>
<text text-anchor="start" x="244.251" y="-323" font-family="Arial Italic" font-size="10.00" fill="#999999">integer</text>
<text text-anchor="start" x="187" y="-310" font-family="Arial" font-size="10.00">file_fingerprint </text>
<text text-anchor="start" x="252.591" y="-310" font-family="Arial Italic" font-size="10.00" fill="#999999">string</text>
<text text-anchor="start" x="187" y="-297" font-family="Arial" font-size="10.00">file_updated_at </text>
<text text-anchor="start" x="258.172" y="-297" font-family="Arial Italic" font-size="10.00" fill="#999999">datetime</text>
<text text-anchor="start" x="187" y="-284" font-family="Arial" font-size="10.00">successful_fetch </text>
<text text-anchor="start" x="263.704" y="-284" font-family="Arial Italic" font-size="10.00" fill="#999999">boolean</text>
<text text-anchor="start" x="187" y="-271" font-family="Arial" font-size="10.00">successful_import </text>
<text text-anchor="start" x="269.808" y="-271" font-family="Arial Italic" font-size="10.00" fill="#999999">boolean</text>
</g>
<!-- m_Feed&#45;&gt;m_FeedImport -->
<g id="edge3" class="edge"><title>m_Feed&#45;&gt;m_FeedImport</title>
<path fill="none" stroke="black" d="M144.118,-312.993C152.886,-313.732 161.896,-314.491 170.787,-315.24"/>
<polygon fill="black" stroke="black" points="170.763,-318.399 179.995,-316.016 171.292,-312.122 170.763,-318.399"/>
</g>
<!-- m_FeedImportError -->
<g id="node3" class="node"><title>m_FeedImportError</title>
<path fill="none" stroke="black" d="M372,-294C372,-294 492,-294 492,-294 498,-294 504,-300 504,-306 504,-306 504,-338 504,-338 504,-344 498,-350 492,-350 492,-350 372,-350 372,-350 366,-350 360,-344 360,-338 360,-338 360,-306 360,-306 360,-300 366,-294 372,-294"/>
<text text-anchor="start" x="386.604" y="-337.2" font-family="Arial Bold" font-size="11.00">FeedImportError</text>
<polyline fill="none" stroke="black" points="360,-330 504,-330 "/>
<text text-anchor="start" x="367" y="-317" font-family="Arial" font-size="10.00">body </text>
<text text-anchor="start" x="391.463" y="-317" font-family="Arial Italic" font-size="10.00" fill="#999999">text</text>
<text text-anchor="start" x="367" y="-304" font-family="Arial" font-size="10.00">error_type </text>
<text text-anchor="start" x="415.354" y="-304" font-family="Arial Italic" font-size="10.00" fill="#999999">string</text>
</g>
<!-- m_Feed&#45;&gt;m_FeedImportError -->
<g id="edge4" class="edge"><title>m_Feed&#45;&gt;m_FeedImportError</title>
<path fill="none" stroke="black" stroke-dasharray="1,5" d="M108.733,-348.686C127.728,-367.617 152.764,-387.984 180,-398 240.067,-420.089 263.027,-417.45 324,-398 350.293,-389.612 375.659,-372.148 395.089,-356.074"/>
<polygon fill="black" stroke="black" points="397.146,-358.46 401.97,-350.234 393.07,-353.656 397.146,-358.46"/>
</g>
<!-- m_Operator -->
<g id="node5" class="node"><title>m_Operator</title>
<path fill="none" stroke="black" d="M12,-122.5C12,-122.5 132,-122.5 132,-122.5 138,-122.5 144,-128.5 144,-134.5 144,-134.5 144,-193.5 144,-193.5 144,-199.5 138,-205.5 132,-205.5 132,-205.5 12,-205.5 12,-205.5 6,-205.5 0,-199.5 0,-193.5 0,-193.5 0,-134.5 0,-134.5 0,-128.5 6,-122.5 12,-122.5"/>
<text text-anchor="start" x="46.7727" y="-192.7" font-family="Arial Bold" font-size="11.00">Operator</text>
<polyline fill="none" stroke="black" points="0,-185.5 144,-185.5 "/>
<text text-anchor="start" x="7" y="-172" font-family="Arial" font-size="10.00">geometry </text>
<text text-anchor="start" x="51.4629" y="-172" font-family="Arial Italic" font-size="10.00" fill="#999999">spatial</text>
<text text-anchor="start" x="7" y="-159" font-family="Arial" font-size="10.00">name </text>
<text text-anchor="start" x="34.793" y="-159" font-family="Arial Italic" font-size="10.00" fill="#999999">string</text>
<text text-anchor="start" x="7" y="-146" font-family="Arial" font-size="10.00">onestop_id </text>
<text text-anchor="start" x="58.709" y="-146" font-family="Arial Italic" font-size="10.00" fill="#999999">string ∗</text>
<text text-anchor="start" x="7" y="-132" font-family="Arial" font-size="10.00">tags </text>
<text text-anchor="start" x="28.6797" y="-132" font-family="Arial Italic" font-size="10.00" fill="#999999">hstore</text>
</g>
<!-- m_Feed&#45;&gt;m_Operator -->
<g id="edge6" class="edge"><title>m_Feed&#45;&gt;m_Operator</title>
<path fill="none" stroke="black" stroke-dasharray="1,5" d="M72,-265.416C72,-248.597 72,-231.778 72,-214.959"/>
<polygon fill="black" stroke="black" points="75.1501,-214.615 72,-205.615 68.8501,-214.615 75.1501,-214.615"/>
</g>
<!-- m_OperatorInFeed -->
<g id="node6" class="node"><title>m_OperatorInFeed</title>
<path fill="none" stroke="black" d="M192,-175C192,-175 312,-175 312,-175 318,-175 324,-181 324,-187 324,-187 324,-219 324,-219 324,-225 318,-231 312,-231 312,-231 192,-231 192,-231 186,-231 180,-225 180,-219 180,-219 180,-187 180,-187 180,-181 186,-175 192,-175"/>
<text text-anchor="start" x="209.048" y="-218.2" font-family="Arial Bold" font-size="11.00">OperatorInFeed</text>
<polyline fill="none" stroke="black" points="180,-211 324,-211 "/>
<text text-anchor="start" x="187" y="-198" font-family="Arial" font-size="10.00">gtfs_agency_id </text>
<text text-anchor="start" x="257.049" y="-198" font-family="Arial Italic" font-size="10.00" fill="#999999">string</text>
<text text-anchor="start" x="187" y="-185" font-family="Arial" font-size="10.00">onestop_id </text>
<text text-anchor="start" x="238.709" y="-185" font-family="Arial Italic" font-size="10.00" fill="#999999">string</text>
</g>
<!-- m_Feed&#45;&gt;m_OperatorInFeed -->
<g id="edge5" class="edge"><title>m_Feed&#45;&gt;m_OperatorInFeed</title>
<path fill="none" stroke="black" d="M144.118,-265.448C161.094,-255.529 178.976,-245.081 195.153,-235.63"/>
<polygon fill="black" stroke="black" points="196.764,-238.337 202.946,-231.076 193.586,-232.897 196.764,-238.337"/>
</g>
<!-- m_FeedImport&#45;&gt;m_FeedImportError -->
<g id="edge7" class="edge"><title>m_FeedImport&#45;&gt;m_FeedImportError</title>
<path fill="none" stroke="black" d="M324.118,-322C332.886,-322 341.896,-322 350.787,-322"/>
<polygon fill="black" stroke="black" points="350.995,-325.15 359.995,-322 350.995,-318.85 350.995,-325.15"/>
</g>
<!-- m_Identifier -->
<g id="node4" class="node"><title>m_Identifier</title>
<path fill="none" stroke="black" d="M192,-0.5C192,-0.5 312,-0.5 312,-0.5 318,-0.5 324,-6.5 324,-12.5 324,-12.5 324,-59.5 324,-59.5 324,-65.5 318,-71.5 312,-71.5 312,-71.5 192,-71.5 192,-71.5 186,-71.5 180,-65.5 180,-59.5 180,-59.5 180,-12.5 180,-12.5 180,-6.5 186,-0.5 192,-0.5"/>
<text text-anchor="start" x="226.775" y="-58.7" font-family="Arial Bold" font-size="11.00">Identifier</text>
<polyline fill="none" stroke="black" points="180,-51.5 324,-51.5 "/>
<text text-anchor="start" x="187" y="-38" font-family="Arial" font-size="10.00">identified_entity_type </text>
<text text-anchor="start" x="283.733" y="-38" font-family="Arial Italic" font-size="10.00" fill="#999999">string ∗</text>
<text text-anchor="start" x="187" y="-24" font-family="Arial" font-size="10.00">identifier </text>
<text text-anchor="start" x="227.576" y="-24" font-family="Arial Italic" font-size="10.00" fill="#999999">string ∗</text>
<text text-anchor="start" x="187" y="-10" font-family="Arial" font-size="10.00">tags </text>
<text text-anchor="start" x="208.68" y="-10" font-family="Arial Italic" font-size="10.00" fill="#999999">hstore</text>
</g>
<!-- m_Operator&#45;&gt;m_Identifier -->
<g id="edge1" class="edge"><title>m_Operator&#45;&gt;m_Identifier</title>
<path fill="none" stroke="black" d="M129.793,-122.335C145.976,-110.535 163.649,-97.7157 180,-86 184.059,-83.0913 188.257,-80.0982 192.489,-77.0912"/>
<polygon fill="black" stroke="black" points="194.602,-79.4544 200.122,-71.6789 190.958,-74.3152 194.602,-79.4544"/>
</g>
<!-- m_Operator&#45;&gt;m_OperatorInFeed -->
<g id="edge10" class="edge"><title>m_Operator&#45;&gt;m_OperatorInFeed</title>
<path fill="none" stroke="black" d="M144.118,-179.582C152.978,-181.523 162.085,-183.519 171.068,-185.487"/>
<polygon fill="black" stroke="black" points="170.53,-188.594 179.995,-187.443 171.878,-182.439 170.53,-188.594"/>
</g>
<!-- m_OperatorServingStop -->
<g id="node7" class="node"><title>m_OperatorServingStop</title>
<path fill="none" stroke="black" d="M192,-101.5C192,-101.5 312,-101.5 312,-101.5 318,-101.5 324,-107.5 324,-113.5 324,-113.5 324,-132.5 324,-132.5 324,-138.5 318,-144.5 312,-144.5 312,-144.5 192,-144.5 192,-144.5 186,-144.5 180,-138.5 180,-132.5 180,-132.5 180,-113.5 180,-113.5 180,-107.5 186,-101.5 192,-101.5"/>
<text text-anchor="start" x="194.38" y="-131.7" font-family="Arial Bold" font-size="11.00">OperatorServingStop</text>
<polyline fill="none" stroke="black" points="180,-124.5 324,-124.5 "/>
<text text-anchor="start" x="187" y="-111" font-family="Arial" font-size="10.00">tags </text>
<text text-anchor="start" x="208.68" y="-111" font-family="Arial Italic" font-size="10.00" fill="#999999">hstore</text>
</g>
<!-- m_Operator&#45;&gt;m_OperatorServingStop -->
<g id="edge8" class="edge"><title>m_Operator&#45;&gt;m_OperatorServingStop</title>
<path fill="none" stroke="black" d="M144.118,-147.619C152.978,-145.578 162.085,-143.48 171.068,-141.411"/>
<polygon fill="black" stroke="black" points="171.932,-144.445 179.995,-139.355 170.518,-138.306 171.932,-144.445"/>
</g>
<!-- m_Stop -->
<g id="node8" class="node"><title>m_Stop</title>
<path fill="none" stroke="black" d="M12,-9.5C12,-9.5 132,-9.5 132,-9.5 138,-9.5 144,-15.5 144,-21.5 144,-21.5 144,-80.5 144,-80.5 144,-86.5 138,-92.5 132,-92.5 132,-92.5 12,-92.5 12,-92.5 6,-92.5 0,-86.5 0,-80.5 0,-80.5 0,-21.5 0,-21.5 0,-15.5 6,-9.5 12,-9.5"/>
<text text-anchor="start" x="57.7808" y="-79.7" font-family="Arial Bold" font-size="11.00">Stop</text>
<polyline fill="none" stroke="black" points="0,-72.5 144,-72.5 "/>
<text text-anchor="start" x="7" y="-59" font-family="Arial" font-size="10.00">geometry </text>
<text text-anchor="start" x="51.4629" y="-59" font-family="Arial Italic" font-size="10.00" fill="#999999">spatial</text>
<text text-anchor="start" x="7" y="-46" font-family="Arial" font-size="10.00">name </text>
<text text-anchor="start" x="34.793" y="-46" font-family="Arial Italic" font-size="10.00" fill="#999999">string</text>
<text text-anchor="start" x="7" y="-33" font-family="Arial" font-size="10.00">onestop_id </text>
<text text-anchor="start" x="58.709" y="-33" font-family="Arial Italic" font-size="10.00" fill="#999999">string ∗</text>
<text text-anchor="start" x="7" y="-19" font-family="Arial" font-size="10.00">tags </text>
<text text-anchor="start" x="28.6797" y="-19" font-family="Arial Italic" font-size="10.00" fill="#999999">hstore</text>
</g>
<!-- m_Operator&#45;&gt;m_Stop -->
<g id="edge9" class="edge"><title>m_Operator&#45;&gt;m_Stop</title>
<path fill="none" stroke="black" stroke-dasharray="1,5" d="M72,-122.36C72,-115.616 72,-108.873 72,-102.129"/>
<polygon fill="black" stroke="black" points="75.1501,-101.934 72,-92.9336 68.8501,-101.934 75.1501,-101.934"/>
</g>
<!-- m_Stop&#45;&gt;m_Identifier -->
<g id="edge2" class="edge"><title>m_Stop&#45;&gt;m_Identifier</title>
<path fill="none" stroke="black" d="M144.118,-45.0069C152.886,-44.268 161.896,-43.5088 170.787,-42.7595"/>
<polygon fill="black" stroke="black" points="171.292,-45.8783 179.995,-41.9835 170.763,-39.6005 171.292,-45.8783"/>
</g>
<!-- m_Stop&#45;&gt;m_OperatorServingStop -->
<g id="edge11" class="edge"><title>m_Stop&#45;&gt;m_OperatorServingStop</title>
<path fill="none" stroke="black" d="M144.118,-79.7667C159.093,-85.8242 174.773,-92.1667 189.366,-98.0694"/>
<polygon fill="black" stroke="black" points="188.294,-101.034 197.819,-101.488 190.657,-95.1935 188.294,-101.034"/>
</g>
</g>
</svg>
