<?xml version="1.0" encoding="UTF-8" standalone="no"?>
<!DOCTYPE svg PUBLIC "-//W3C//DTD SVG 1.1//EN"
 "http://www.w3.org/Graphics/SVG/1.1/DTD/svg11.dtd">
<!-- Generated by graphviz version 2.38.0 (20140413.2041)
 -->
<!-- Title: TransitlandDatastore Pages: 1 -->
<svg width="295pt" height="179pt"
 viewBox="0.00 0.00 294.64 178.55" xmlns="http://www.w3.org/2000/svg" xmlns:xlink="http://www.w3.org/1999/xlink">
<g id="graph0" class="graph" transform="scale(1 1) rotate(0) translate(28.8 149.749)">
<title>TransitlandDatastore</title>
<polygon fill="white" stroke="none" points="-28.8,28.8 -28.8,-149.749 265.844,-149.749 265.844,28.8 -28.8,28.8"/>
<text text-anchor="middle" x="118.522" y="-106.549" font-family="Arial Bold" font-size="13.00">TransitlandDatastore domain model</text>
<!-- m_Changeset -->
<g id="node1" class="node"><title>m_Changeset</title>
<path fill="none" stroke="black" d="M58.5222,-0.5C58.5222,-0.5 178.522,-0.5 178.522,-0.5 184.522,-0.5 190.522,-6.5 190.522,-12.5 190.522,-12.5 190.522,-70.5 190.522,-70.5 190.522,-76.5 184.522,-82.5 178.522,-82.5 178.522,-82.5 58.5222,-82.5 58.5222,-82.5 52.5222,-82.5 46.5222,-76.5 46.5222,-70.5 46.5222,-70.5 46.5222,-12.5 46.5222,-12.5 46.5222,-6.5 52.5222,-0.5 58.5222,-0.5"/>
<text text-anchor="start" x="88.4045" y="-69.7" font-family="Arial Bold" font-size="11.00">Changeset</text>
<polyline fill="none" stroke="black" points="46.5222,-62.5 190.522,-62.5 "/>
<text text-anchor="start" x="53.5222" y="-49.5" font-family="Arial" font-size="10.00">applied </text>
<text text-anchor="start" x="88.5515" y="-49.5" font-family="Arial Italic" font-size="10.00" fill="#999999">boolean</text>
<text text-anchor="start" x="53.5222" y="-36.5" font-family="Arial" font-size="10.00">applied_at </text>
<text text-anchor="start" x="102.453" y="-36.5" font-family="Arial Italic" font-size="10.00" fill="#999999">datetime</text>
<text text-anchor="start" x="53.5222" y="-23.5" font-family="Arial" font-size="10.00">notes </text>
<text text-anchor="start" x="80.7634" y="-23.5" font-family="Arial Italic" font-size="10.00" fill="#999999">text</text>
<text text-anchor="start" x="53.5222" y="-10.5" font-family="Arial" font-size="10.00">payload </text>
<text text-anchor="start" x="91.3298" y="-10.5" font-family="Arial Italic" font-size="10.00" fill="#999999">json</text>
</g>
</g>
</svg>
